<?xml version="1.0" encoding="UTF-8"?>
<svg xmlns="http://www.w3.org/2000/svg" xmlns:xlink="http://www.w3.org/1999/xlink" width="197pt" height="78pt" viewBox="0 0 197 78">
<defs>
<g>
<g id="glyph-0-0">
<path d="M 2.390625 -4.328125 L 6.921875 -4.328125 L 6.921875 -5.390625 L 2.390625 -5.390625 L 2.390625 -8.4375 L 7.546875 -8.4375 L 7.546875 -9.5 L 1.171875 -9.5 L 1.171875 0 L 2.390625 0 Z M 2.390625 -4.328125 "/>
</g>
<g id="glyph-0-1">
<path d="M 9.234375 -5.015625 L 5.28125 -5.015625 L 5.28125 -3.953125 L 8.171875 -3.953125 L 8.171875 -3.6875 C 8.171875 -2 6.921875 -0.765625 5.1875 -0.765625 C 4.21875 -0.765625 3.34375 -1.125 2.78125 -1.734375 C 2.15625 -2.40625 1.78125 -3.546875 1.78125 -4.71875 C 1.78125 -7.046875 3.109375 -8.59375 5.125 -8.59375 C 6.5625 -8.59375 7.609375 -7.84375 7.875 -6.625 L 9.109375 -6.625 C 8.765625 -8.546875 7.3125 -9.65625 5.140625 -9.65625 C 3.96875 -9.65625 3.03125 -9.359375 2.296875 -8.75 C 1.1875 -7.828125 0.578125 -6.359375 0.578125 -4.65625 C 0.578125 -1.734375 2.359375 0.296875 4.921875 0.296875 C 6.21875 0.296875 7.234375 -0.1875 8.171875 -1.21875 L 8.46875 0.046875 L 9.234375 0.046875 Z M 9.234375 -5.015625 "/>
</g>
<g id="glyph-0-2">
<path d="M 8.625 -6.5625 C 8.25 -8.640625 7.046875 -9.65625 4.96875 -9.65625 C 3.6875 -9.65625 2.65625 -9.25 1.953125 -8.46875 C 1.09375 -7.53125 0.625 -6.171875 0.625 -4.640625 C 0.625 -3.078125 1.109375 -1.734375 2 -0.8125 C 2.734375 -0.046875 3.671875 0.296875 4.90625 0.296875 C 7.234375 0.296875 8.53125 -0.953125 8.828125 -3.46875 L 7.578125 -3.46875 C 7.46875 -2.8125 7.34375 -2.375 7.140625 -2 C 6.75 -1.21875 5.9375 -0.765625 4.921875 -0.765625 C 3.03125 -0.765625 1.84375 -2.28125 1.84375 -4.65625 C 1.84375 -7.09375 2.96875 -8.59375 4.828125 -8.59375 C 5.59375 -8.59375 6.3125 -8.359375 6.703125 -7.984375 C 7.046875 -7.65625 7.25 -7.265625 7.390625 -6.5625 Z M 8.625 -6.5625 "/>
</g>
<g id="glyph-1-0">
<path d="M 4.25 -2.234375 C 5.140625 -2.234375 6.90625 -1.546875 6.90625 0.484375 C 6.90625 1.546875 6.4375 2.234375 5.53125 2.234375 C 4.640625 2.234375 2.875 1.546875 2.875 -0.484375 C 2.875 -1.546875 3.34375 -2.234375 4.25 -2.234375 Z M 4.875 -2.703125 C 2.015625 -2.703125 0 -1.421875 0 0 C 0 1.421875 2.015625 2.703125 4.875 2.703125 C 7.75 2.703125 9.78125 1.421875 9.78125 0 C 9.78125 -1.421875 7.75 -2.703125 4.875 -2.703125 Z M 4.875 -2.703125 "/>
</g>
<g id="glyph-1-1">
<path d="M 5.296875 12.65625 L 5.3125 11.796875 L 5.234375 11.796875 C 4.265625 11.796875 3.421875 11.28125 2.90625 10.5 C 3.109375 10.578125 3.3125 10.625 3.53125 10.625 C 4.5625 10.625 5.421875 9.765625 5.421875 8.71875 C 5.421875 7.609375 4.609375 6.671875 3.53125 6.671875 C 2.34375 6.671875 1.296875 7.5625 1.296875 8.71875 C 1.296875 10.890625 3.03125 12.65625 5.171875 12.65625 Z M 9.1875 4.046875 C 8.9375 1.8125 8.359375 -1.234375 7.984375 -3.015625 C 10.125 -2.78125 11.4375 -1.015625 11.4375 0.78125 C 11.4375 2.25 10.53125 3.5625 9.1875 4.046875 Z M 1.46875 -0.5625 C 1.46875 -3.75 3.578125 -6.171875 5.71875 -8.59375 C 6.0625 -7.4375 6.359375 -6.25 6.640625 -5.09375 C 4.609375 -4.640625 3.453125 -2.921875 3.453125 -1.171875 C 3.453125 1.3125 5.65625 2.546875 5.953125 2.546875 C 6.203125 2.546875 6.390625 2.328125 6.390625 2.109375 C 6.390625 2.015625 6.359375 1.90625 6.25 1.8125 C 5.140625 1.171875 4.640625 0.234375 4.640625 -0.640625 C 4.640625 -1.796875 5.53125 -2.84375 7.109375 -3.015625 C 7.796875 0.203125 8.234375 2.96875 8.359375 4.25 C 7.671875 4.359375 6.75 4.359375 6.734375 4.359375 C 4.28125 4.359375 1.46875 2.328125 1.46875 -0.5625 Z M 4.984375 -11.015625 C 2.65625 -8.328125 0.046875 -5.75 0.046875 -2.234375 C 0.046875 1.640625 2.828125 5.21875 6.671875 5.21875 C 7.5625 5.21875 8.34375 5.078125 8.453125 5.0625 C 8.5 5.671875 8.53125 6.28125 8.53125 6.890625 C 8.53125 7.25 8.5 7.625 8.484375 7.984375 C 8.359375 9.953125 7.171875 11.75 5.3125 11.796875 L 5.296875 12.65625 C 7.5625 12.59375 9.1875 10.484375 9.328125 8.109375 C 9.34375 7.734375 9.359375 7.328125 9.359375 6.953125 C 9.359375 6.25 9.328125 5.5625 9.265625 4.859375 C 11.375 4.1875 12.84375 2.21875 12.84375 -0.046875 C 12.84375 -2.6875 10.84375 -5.234375 7.75 -5.234375 C 7.625 -5.234375 7.53125 -5.21875 7.484375 -5.21875 C 7.15625 -6.59375 6.796875 -7.984375 6.375 -9.34375 C 8.25 -11.515625 9.953125 -13.75 9.953125 -16.59375 C 9.953125 -18.84375 8.671875 -22.140625 7.3125 -23.734375 C 7.1875 -23.828125 7.03125 -23.828125 6.90625 -23.734375 C 5.046875 -22.375 3.9375 -20.203125 3.9375 -17.90625 C 3.9375 -14.40625 4.40625 -12.921875 4.984375 -11.015625 Z M 8.53125 -18.25 C 8.53125 -15.734375 7.21875 -13.71875 5.625 -11.796875 C 5.140625 -13.375 4.90625 -14.625 4.90625 -15.65625 C 4.90625 -17.84375 6.15625 -19.859375 8.125 -20.8125 C 8.546875 -19.5625 8.53125 -18.921875 8.53125 -18.25 Z M 8.53125 -18.25 "/>
</g>
<g id="glyph-2-0">
<path d="M -0.09375 0 L 7.6875 0 L 4 -9.046875 L 3.484375 -9.046875 Z M 1.09375 -1.0625 L 3.375 -7.03125 L 5.484375 -1.8125 C 5.578125 -1.59375 5.578125 -1.53125 5.578125 -1.46875 C 5.578125 -1.1875 5.296875 -1.0625 4.71875 -1.0625 Z M 1.09375 -1.0625 "/>
</g>
<g id="glyph-2-1">
<path d="M 0.46875 -8.296875 L 0.71875 -8.296875 C 1.421875 -8.28125 1.640625 -8.25 1.75 -8.125 C 1.8125 -8.015625 1.8125 -7.984375 1.8125 -7.359375 L 1.8125 -1.515625 C 1.8125 -0.890625 1.8125 -0.859375 1.75 -0.75 C 1.640625 -0.625 1.421875 -0.578125 0.71875 -0.578125 L 0.46875 -0.578125 L 0.46875 0 L 4.53125 0 L 4.53125 -0.578125 L 4.296875 -0.578125 C 3.609375 -0.578125 3.375 -0.609375 3.265625 -0.75 C 3.203125 -0.859375 3.203125 -0.890625 3.203125 -1.515625 L 3.203125 -7.359375 C 3.203125 -8 3.203125 -8.015625 3.265625 -8.125 C 3.375 -8.25 3.59375 -8.28125 4.296875 -8.296875 L 4.53125 -8.296875 L 4.53125 -8.875 L 0.46875 -8.875 Z M 0.46875 -8.296875 "/>
</g>
<g id="glyph-2-2">
<path d="M 4.828125 -1.90625 L 2.578125 -7.609375 C 2.515625 -7.765625 2.484375 -7.9375 2.484375 -8 C 2.484375 -8.21875 2.6875 -8.296875 3.25 -8.296875 L 3.734375 -8.296875 L 3.734375 -8.875 L -0.09375 -8.875 L -0.09375 -8.296875 L 0.140625 -8.296875 C 0.71875 -8.28125 0.890625 -8.15625 1.09375 -7.609375 L 4.203125 0.1875 L 4.703125 0.1875 L 7.53125 -7.09375 C 7.890625 -8.046875 8.15625 -8.28125 8.859375 -8.296875 L 8.984375 -8.296875 L 8.984375 -8.875 L 5.65625 -8.875 L 5.65625 -8.296875 L 5.890625 -8.296875 C 6.515625 -8.296875 6.890625 -8.046875 6.890625 -7.65625 C 6.890625 -7.484375 6.828125 -7.21875 6.734375 -6.96875 Z M 4.828125 -1.90625 "/>
</g>
<g id="glyph-2-3">
<path d="M 0.71875 -5.6875 L 1.265625 -5.59375 L 1.484375 -6.5625 C 1.671875 -7.375 1.765625 -7.5 2.109375 -7.5 C 2.171875 -7.5 2.28125 -7.5 2.390625 -7.484375 C 3.890625 -7.421875 3.890625 -7.421875 4.46875 -7.421875 C 4.625 -7.421875 4.90625 -7.421875 5.25 -7.421875 L 4.421875 -5.75 C 3.5 -3.9375 3.390625 -3.71875 3.09375 -2.953125 C 2.703125 -2.03125 2.515625 -1.25 2.515625 -0.734375 C 2.515625 -0.171875 2.796875 0.171875 3.28125 0.171875 C 3.875 0.171875 4.109375 -0.21875 4.09375 -1.296875 C 4.03125 -3.0625 4.25 -3.921875 5.578125 -6.796875 C 5.75 -7.1875 5.9375 -7.578125 6.125 -7.953125 C 6.140625 -7.984375 6.171875 -8.09375 6.25 -8.25 L 6.25 -8.609375 C 5.515625 -8.546875 5.109375 -8.515625 4.359375 -8.515625 C 3.28125 -8.515625 2.4375 -8.5625 1.109375 -8.65625 Z M 0.71875 -5.6875 "/>
</g>
<g id="glyph-3-0">
<path d="M 4.796875 -6.53125 L 0.421875 -6.53125 L 0.421875 -5.734375 L 3.953125 -5.734375 C 2.390625 -3.515625 1.765625 -2.140625 1.265625 0 L 2.140625 0 C 2.5 -2.09375 3.3125 -3.890625 4.796875 -5.859375 Z M 4.796875 -6.53125 "/>
</g>
</g>
</defs>
<path fill="none" stroke-width="9.46451" stroke-linecap="butt" stroke-linejoin="miter" stroke="rgb(0%, 0%, 0%)" stroke-opacity="1" stroke-miterlimit="10" d="M 1418.164062 7848.554688 L 1418.164062 8047.8125 " transform="matrix(0.1, 0, 0, -0.1, -60, 833)"/>
<path fill="none" stroke-width="9.96264" stroke-linecap="round" stroke-linejoin="miter" stroke="rgb(0%, 0%, 0%)" stroke-opacity="1" stroke-miterlimit="10" d="M 2018.046875 7798.75 L 2154.6875 7798.75 " transform="matrix(0.1, 0, 0, -0.1, -60, 833)"/>
<path fill="none" stroke-width="4.98132" stroke-linecap="round" stroke-linejoin="miter" stroke="rgb(0%, 0%, 0%)" stroke-opacity="1" stroke-miterlimit="10" d="M 711.132812 7848.554688 L 2460.351562 7848.554688 " transform="matrix(0.1, 0, 0, -0.1, -60, 833)"/>
<path fill="none" stroke-width="4.98132" stroke-linecap="round" stroke-linejoin="miter" stroke="rgb(0%, 0%, 0%)" stroke-opacity="1" stroke-miterlimit="10" d="M 711.132812 7898.398438 L 2460.351562 7898.398438 " transform="matrix(0.1, 0, 0, -0.1, -60, 833)"/>
<path fill="none" stroke-width="4.98132" stroke-linecap="round" stroke-linejoin="miter" stroke="rgb(0%, 0%, 0%)" stroke-opacity="1" stroke-miterlimit="10" d="M 711.132812 7948.203125 L 2460.351562 7948.203125 " transform="matrix(0.1, 0, 0, -0.1, -60, 833)"/>
<path fill="none" stroke-width="4.98132" stroke-linecap="round" stroke-linejoin="miter" stroke="rgb(0%, 0%, 0%)" stroke-opacity="1" stroke-miterlimit="10" d="M 711.132812 7998.007812 L 2460.351562 7998.007812 " transform="matrix(0.1, 0, 0, -0.1, -60, 833)"/>
<path fill="none" stroke-width="4.98132" stroke-linecap="round" stroke-linejoin="miter" stroke="rgb(0%, 0%, 0%)" stroke-opacity="1" stroke-miterlimit="10" d="M 711.132812 8047.8125 L 2460.351562 8047.8125 " transform="matrix(0.1, 0, 0, -0.1, -60, 833)"/>
<path fill="none" stroke-width="9.46451" stroke-linecap="butt" stroke-linejoin="miter" stroke="rgb(0%, 0%, 0%)" stroke-opacity="1" stroke-miterlimit="10" d="M 2458.085938 7848.554688 L 2458.085938 8047.8125 " transform="matrix(0.1, 0, 0, -0.1, -60, 833)"/>
<path fill="none" stroke-width="9.46451" stroke-linecap="butt" stroke-linejoin="miter" stroke="rgb(0%, 0%, 0%)" stroke-opacity="1" stroke-miterlimit="10" d="M 1938.125 7848.554688 L 1938.125 8047.8125 " transform="matrix(0.1, 0, 0, -0.1, -60, 833)"/>
<g fill="rgb(0%, 0%, 0%)" fill-opacity="1">
<use xlink:href="#glyph-0-0" x="39.7578" y="22.712"/>
</g>
<path fill="none" stroke-width="4.98132" stroke-linecap="butt" stroke-linejoin="round" stroke="rgb(0%, 0%, 0%)" stroke-opacity="1" stroke-miterlimit="10" d="M 1080 8162.109375 L 1133.320312 8162.109375 L 1106.640625 8207.96875 Z M 1080 8162.109375 " transform="matrix(0.1, 0, 0, -0.1, -60, 833)"/>
<g fill="rgb(0%, 0%, 0%)" fill-opacity="1">
<use xlink:href="#glyph-1-0" x="39.7578" y="45.652"/>
</g>
<g fill="rgb(0%, 0%, 0%)" fill-opacity="1">
<use xlink:href="#glyph-1-0" x="39.7578" y="40.67075"/>
</g>
<g fill="rgb(0%, 0%, 0%)" fill-opacity="1">
<use xlink:href="#glyph-1-0" x="39.7578" y="35.6895"/>
</g>
<g fill="rgb(0%, 0%, 0%)" fill-opacity="1">
<use xlink:href="#glyph-1-0" x="39.7578" y="30.70786"/>
</g>
<g fill="rgb(0%, 0%, 0%)" fill-opacity="1">
<use xlink:href="#glyph-1-1" x="14.8512" y="43.16136"/>
</g>
<g fill="rgb(0%, 0%, 0%)" fill-opacity="1">
<use xlink:href="#glyph-2-0" x="47.9614" y="67.38366"/>
</g>
<g fill="rgb(0%, 0%, 0%)" fill-opacity="1">
<use xlink:href="#glyph-2-1" x="33.674342" y="67.38366"/>
</g>
<g fill="rgb(0%, 0%, 0%)" fill-opacity="1">
<use xlink:href="#glyph-2-2" x="39.116915" y="67.38366"/>
</g>
<g fill="rgb(0%, 0%, 0%)" fill-opacity="1">
<use xlink:href="#glyph-0-1" x="91.7544" y="22.71216"/>
</g>
<g fill="rgb(0%, 0%, 0%)" fill-opacity="1">
<use xlink:href="#glyph-3-0" x="101.9591" y="16.78833"/>
</g>
<g fill="rgb(0%, 0%, 0%)" fill-opacity="1">
<use xlink:href="#glyph-1-0" x="91.7544" y="43.16133"/>
</g>
<g fill="rgb(0%, 0%, 0%)" fill-opacity="1">
<use xlink:href="#glyph-1-0" x="91.7544" y="38.18008"/>
</g>
<g fill="rgb(0%, 0%, 0%)" fill-opacity="1">
<use xlink:href="#glyph-1-0" x="91.7544" y="33.19844"/>
</g>
<g fill="rgb(0%, 0%, 0%)" fill-opacity="1">
<use xlink:href="#glyph-1-0" x="91.7544" y="28.21719"/>
</g>
<g fill="rgb(0%, 0%, 0%)" fill-opacity="1">
<use xlink:href="#glyph-2-2" x="88.81768" y="67.38359"/>
</g>
<g fill="rgb(0%, 0%, 0%)" fill-opacity="1">
<use xlink:href="#glyph-2-3" x="97.66181" y="67.38359"/>
</g>
<g fill="rgb(0%, 0%, 0%)" fill-opacity="1">
<use xlink:href="#glyph-0-2" x="143.75088" y="22.71209"/>
</g>
<path fill="none" stroke-width="4.98132" stroke-linecap="butt" stroke-linejoin="round" stroke="rgb(0%, 0%, 0%)" stroke-opacity="1" stroke-miterlimit="10" d="M 2133.554688 8162.109375 L 2186.875 8162.109375 L 2160.195312 8207.96875 Z M 2133.554688 8162.109375 " transform="matrix(0.1, 0, 0, -0.1, -60, 833)"/>
<g fill="rgb(0%, 0%, 0%)" fill-opacity="1">
<use xlink:href="#glyph-1-0" x="143.751" y="53.124"/>
</g>
<g fill="rgb(0%, 0%, 0%)" fill-opacity="1">
<use xlink:href="#glyph-1-0" x="143.751" y="48.14275"/>
</g>
<g fill="rgb(0%, 0%, 0%)" fill-opacity="1">
<use xlink:href="#glyph-1-0" x="143.751" y="43.1615"/>
</g>
<g fill="rgb(0%, 0%, 0%)" fill-opacity="1">
<use xlink:href="#glyph-1-0" x="143.751" y="38.18025"/>
</g>
<g fill="rgb(0%, 0%, 0%)" fill-opacity="1">
<use xlink:href="#glyph-2-0" x="147.27756" y="67.38375"/>
</g>
<g fill="rgb(0%, 0%, 0%)" fill-opacity="1">
<use xlink:href="#glyph-2-1" x="142.344744" y="67.38375"/>
</g>
</svg>
