<?xml version="1.0" encoding="UTF-8"?>
<svg xmlns="http://www.w3.org/2000/svg" xmlns:xlink="http://www.w3.org/1999/xlink" width="466pt" height="74pt" viewBox="0 0 466 74">
<defs>
<g>
<g id="glyph-0-0">
<path d="M 4.25 -2.234375 C 5.140625 -2.234375 6.90625 -1.546875 6.90625 0.484375 C 6.90625 1.546875 6.4375 2.234375 5.53125 2.234375 C 4.640625 2.234375 2.875 1.546875 2.875 -0.484375 C 2.875 -1.546875 3.34375 -2.234375 4.25 -2.234375 Z M 4.875 -2.703125 C 2.015625 -2.703125 0 -1.421875 0 0 C 0 1.421875 2.015625 2.703125 4.875 2.703125 C 7.75 2.703125 9.78125 1.421875 9.78125 0 C 9.78125 -1.421875 7.75 -2.703125 4.875 -2.703125 Z M 4.875 -2.703125 "/>
</g>
<g id="glyph-0-1">
<path d="M 5.296875 12.65625 L 5.3125 11.796875 L 5.234375 11.796875 C 4.265625 11.796875 3.421875 11.28125 2.90625 10.5 C 3.109375 10.578125 3.3125 10.625 3.53125 10.625 C 4.5625 10.625 5.421875 9.765625 5.421875 8.71875 C 5.421875 7.609375 4.609375 6.671875 3.53125 6.671875 C 2.34375 6.671875 1.296875 7.5625 1.296875 8.71875 C 1.296875 10.890625 3.03125 12.65625 5.171875 12.65625 Z M 9.1875 4.046875 C 8.9375 1.8125 8.359375 -1.234375 7.984375 -3.015625 C 10.125 -2.78125 11.4375 -1.015625 11.4375 0.78125 C 11.4375 2.25 10.53125 3.5625 9.1875 4.046875 Z M 1.46875 -0.5625 C 1.46875 -3.75 3.578125 -6.171875 5.71875 -8.59375 C 6.0625 -7.4375 6.359375 -6.25 6.640625 -5.09375 C 4.609375 -4.640625 3.453125 -2.921875 3.453125 -1.171875 C 3.453125 1.3125 5.65625 2.546875 5.953125 2.546875 C 6.203125 2.546875 6.390625 2.328125 6.390625 2.109375 C 6.390625 2.015625 6.359375 1.90625 6.25 1.8125 C 5.140625 1.171875 4.640625 0.234375 4.640625 -0.640625 C 4.640625 -1.796875 5.53125 -2.84375 7.109375 -3.015625 C 7.796875 0.203125 8.234375 2.96875 8.359375 4.25 C 7.671875 4.359375 6.75 4.359375 6.734375 4.359375 C 4.28125 4.359375 1.46875 2.328125 1.46875 -0.5625 Z M 4.984375 -11.015625 C 2.65625 -8.328125 0.046875 -5.75 0.046875 -2.234375 C 0.046875 1.640625 2.828125 5.21875 6.671875 5.21875 C 7.5625 5.21875 8.34375 5.078125 8.453125 5.0625 C 8.5 5.671875 8.53125 6.28125 8.53125 6.890625 C 8.53125 7.25 8.5 7.625 8.484375 7.984375 C 8.359375 9.953125 7.171875 11.75 5.3125 11.796875 L 5.296875 12.65625 C 7.5625 12.59375 9.1875 10.484375 9.328125 8.109375 C 9.34375 7.734375 9.359375 7.328125 9.359375 6.953125 C 9.359375 6.25 9.328125 5.5625 9.265625 4.859375 C 11.375 4.1875 12.84375 2.21875 12.84375 -0.046875 C 12.84375 -2.6875 10.84375 -5.234375 7.75 -5.234375 C 7.625 -5.234375 7.53125 -5.21875 7.484375 -5.21875 C 7.15625 -6.59375 6.796875 -7.984375 6.375 -9.34375 C 8.25 -11.515625 9.953125 -13.75 9.953125 -16.59375 C 9.953125 -18.84375 8.671875 -22.140625 7.3125 -23.734375 C 7.1875 -23.828125 7.03125 -23.828125 6.90625 -23.734375 C 5.046875 -22.375 3.9375 -20.203125 3.9375 -17.90625 C 3.9375 -14.40625 4.40625 -12.921875 4.984375 -11.015625 Z M 8.53125 -18.25 C 8.53125 -15.734375 7.21875 -13.71875 5.625 -11.796875 C 5.140625 -13.375 4.90625 -14.625 4.90625 -15.65625 C 4.90625 -17.84375 6.15625 -19.859375 8.125 -20.8125 C 8.546875 -19.5625 8.53125 -18.921875 8.53125 -18.25 Z M 8.53125 -18.25 "/>
</g>
<g id="glyph-0-2">
<path d="M 0 -2.375 L 0 -1.171875 C 0 -0.953125 0.171875 -0.78125 0.390625 -0.78125 C 0.4375 -0.78125 0.5 -0.78125 0.53125 -0.796875 L 1.171875 -1.015625 L 1.171875 2.171875 L 0.265625 2.484375 C 0.09375 2.546875 0 2.703125 0 2.875 L 0 4.0625 C 0 4.28125 0.171875 4.46875 0.390625 4.46875 C 0.4375 4.46875 0.5 4.46875 0.53125 4.4375 L 1.171875 4.203125 L 1.171875 7.09375 C 1.171875 7.296875 1.328125 7.46875 1.53125 7.46875 C 1.734375 7.46875 1.90625 7.296875 1.90625 7.09375 L 1.90625 3.9375 L 3.5625 3.328125 L 3.5625 6.21875 C 3.5625 6.421875 3.75 6.59375 3.9375 6.59375 C 4.140625 6.59375 4.296875 6.421875 4.296875 6.21875 L 4.296875 3.0625 L 5.21875 2.734375 C 5.375 2.671875 5.484375 2.53125 5.484375 2.375 L 5.484375 1.171875 C 5.484375 0.953125 5.296875 0.78125 5.078125 0.78125 C 5.046875 0.78125 4.984375 0.78125 4.9375 0.796875 L 4.296875 1.015625 L 4.296875 -2.171875 L 5.21875 -2.484375 C 5.375 -2.546875 5.484375 -2.703125 5.484375 -2.875 L 5.484375 -4.0625 C 5.484375 -4.28125 5.296875 -4.46875 5.078125 -4.46875 C 5.046875 -4.46875 4.984375 -4.46875 4.9375 -4.4375 L 4.296875 -4.203125 L 4.296875 -7.09375 C 4.296875 -7.296875 4.140625 -7.46875 3.9375 -7.46875 C 3.75 -7.46875 3.5625 -7.296875 3.5625 -7.09375 L 3.5625 -3.9375 L 1.90625 -3.328125 L 1.90625 -6.21875 C 1.90625 -6.421875 1.734375 -6.59375 1.53125 -6.59375 C 1.328125 -6.59375 1.171875 -6.421875 1.171875 -6.21875 L 1.171875 -3.0625 L 0.265625 -2.734375 C 0.09375 -2.671875 0 -2.53125 0 -2.375 Z M 3.5625 -1.890625 L 3.5625 1.296875 L 1.90625 1.890625 L 1.90625 -1.296875 Z M 3.5625 -1.890625 "/>
</g>
<g id="glyph-0-3">
<path d="M 0.53125 -0.8125 C 0.5625 -1.46875 0.96875 -2.078125 1.59375 -2.078125 C 2.171875 -2.078125 2.453125 -1.390625 2.453125 -0.734375 C 2.453125 0.4375 1.5 1.28125 0.59375 2.03125 C 0.53125 1.59375 0.515625 1.15625 0.515625 0.71875 L 0.515625 0.5 Z M -0.296875 2.75 C -0.296875 3.03125 -0.09375 3.25 0.15625 3.25 C 0.578125 3.25 0.75 2.75 1.0625 2.484375 C 2.265625 1.453125 3.984375 0.71875 3.984375 -0.875 C 3.984375 -1.953125 3.25 -2.90625 2.21875 -2.90625 C 1.546875 -2.90625 0.890625 -2.65625 0.390625 -2.234375 L 0.53125 -9.109375 C 0.375 -9.203125 0.171875 -9.265625 0 -9.265625 C -0.171875 -9.265625 -0.375 -9.203125 -0.53125 -9.109375 Z M -0.296875 2.75 "/>
</g>
<g id="glyph-1-0">
<path d="M 1.15625 0 L 4.828125 0 C 7.21875 0 8.6875 -1.796875 8.6875 -4.75 C 8.6875 -7.703125 7.234375 -9.5 4.828125 -9.5 L 1.15625 -9.5 Z M 2.375 -1.0625 L 2.375 -8.4375 L 4.609375 -8.4375 C 6.484375 -8.4375 7.484375 -7.171875 7.484375 -4.75 C 7.484375 -2.328125 6.484375 -1.0625 4.609375 -1.0625 Z M 2.375 -1.0625 "/>
</g>
<g id="glyph-1-1">
<path d="M 9.234375 -5.015625 L 5.28125 -5.015625 L 5.28125 -3.953125 L 8.171875 -3.953125 L 8.171875 -3.6875 C 8.171875 -2 6.921875 -0.765625 5.1875 -0.765625 C 4.21875 -0.765625 3.34375 -1.125 2.78125 -1.734375 C 2.15625 -2.40625 1.78125 -3.546875 1.78125 -4.71875 C 1.78125 -7.046875 3.109375 -8.59375 5.125 -8.59375 C 6.5625 -8.59375 7.609375 -7.84375 7.875 -6.625 L 9.109375 -6.625 C 8.765625 -8.546875 7.3125 -9.65625 5.140625 -9.65625 C 3.96875 -9.65625 3.03125 -9.359375 2.296875 -8.75 C 1.1875 -7.828125 0.578125 -6.359375 0.578125 -4.65625 C 0.578125 -1.734375 2.359375 0.296875 4.921875 0.296875 C 6.21875 0.296875 7.234375 -0.1875 8.171875 -1.21875 L 8.46875 0.046875 L 9.234375 0.046875 Z M 9.234375 -5.015625 "/>
</g>
<g id="glyph-1-2">
<path d="M 6.171875 -2.859375 L 7.15625 0 L 8.515625 0 L 5.171875 -9.5 L 3.609375 -9.5 L 0.21875 0 L 1.515625 0 L 2.515625 -2.859375 Z M 5.84375 -3.875 L 2.8125 -3.875 L 4.375 -8.203125 Z M 5.84375 -3.875 "/>
</g>
<g id="glyph-1-3">
<path d="M 0.90625 -6.828125 L 0.90625 0 L 2 0 L 2 -4.28125 C 2 -5.28125 2.71875 -6.078125 3.609375 -6.078125 C 4.421875 -6.078125 4.875 -5.578125 4.875 -4.703125 L 4.875 0 L 5.96875 0 L 5.96875 -4.28125 C 5.96875 -5.28125 6.6875 -6.078125 7.578125 -6.078125 C 8.359375 -6.078125 8.828125 -5.5625 8.828125 -4.703125 L 8.828125 0 L 9.9375 0 L 9.9375 -5.125 C 9.9375 -6.34375 9.21875 -7.03125 7.953125 -7.03125 C 7.03125 -7.03125 6.484375 -6.75 5.84375 -5.984375 C 5.453125 -6.71875 4.90625 -7.03125 4.015625 -7.03125 C 3.09375 -7.03125 2.484375 -6.6875 1.921875 -5.859375 L 1.921875 -6.828125 Z M 0.90625 -6.828125 "/>
</g>
<g id="glyph-1-4">
<path d="M 8.625 -6.5625 C 8.25 -8.640625 7.046875 -9.65625 4.96875 -9.65625 C 3.6875 -9.65625 2.65625 -9.25 1.953125 -8.46875 C 1.09375 -7.53125 0.625 -6.171875 0.625 -4.640625 C 0.625 -3.078125 1.109375 -1.734375 2 -0.8125 C 2.734375 -0.046875 3.671875 0.296875 4.90625 0.296875 C 7.234375 0.296875 8.53125 -0.953125 8.828125 -3.46875 L 7.578125 -3.46875 C 7.46875 -2.8125 7.34375 -2.375 7.140625 -2 C 6.75 -1.21875 5.9375 -0.765625 4.921875 -0.765625 C 3.03125 -0.765625 1.84375 -2.28125 1.84375 -4.65625 C 1.84375 -7.09375 2.96875 -8.59375 4.828125 -8.59375 C 5.59375 -8.59375 6.3125 -8.359375 6.703125 -7.984375 C 7.046875 -7.65625 7.25 -7.265625 7.390625 -6.5625 Z M 8.625 -6.5625 "/>
</g>
<g id="glyph-1-5">
<path d="M 2.390625 -4.328125 L 6.921875 -4.328125 L 6.921875 -5.390625 L 2.390625 -5.390625 L 2.390625 -8.4375 L 7.546875 -8.4375 L 7.546875 -9.5 L 1.171875 -9.5 L 1.171875 0 L 2.390625 0 Z M 2.390625 -4.328125 "/>
</g>
<g id="glyph-1-6">
<path d="M 1.03125 0 L 5.3125 0 C 6.21875 0 6.875 -0.25 7.390625 -0.796875 C 7.859375 -1.296875 8.125 -1.96875 8.125 -2.703125 C 8.125 -3.859375 7.59375 -4.546875 6.390625 -5.015625 C 7.265625 -5.421875 7.703125 -6.109375 7.703125 -7.09375 C 7.703125 -7.796875 7.4375 -8.390625 6.953125 -8.828125 C 6.4375 -9.296875 5.796875 -9.5 4.890625 -9.5 L 1.03125 -9.5 Z M 2.234375 -5.40625 L 2.234375 -8.4375 L 4.59375 -8.4375 C 5.265625 -8.4375 5.640625 -8.34375 5.96875 -8.09375 C 6.3125 -7.828125 6.484375 -7.4375 6.484375 -6.921875 C 6.484375 -6.390625 6.3125 -6 5.96875 -5.75 C 5.640625 -5.5 5.265625 -5.40625 4.59375 -5.40625 Z M 2.234375 -1.0625 L 2.234375 -4.34375 L 5.203125 -4.34375 C 6.265625 -4.34375 6.90625 -3.734375 6.90625 -2.703125 C 6.90625 -1.6875 6.265625 -1.0625 5.203125 -1.0625 Z M 2.234375 -1.0625 "/>
</g>
<g id="glyph-1-7">
<path d="M 2.390625 -4.328125 L 7.5625 -4.328125 L 7.5625 -5.390625 L 2.390625 -5.390625 L 2.390625 -8.4375 L 7.75 -8.4375 L 7.75 -9.5 L 1.171875 -9.5 L 1.171875 0 L 7.984375 0 L 7.984375 -1.0625 L 2.390625 -1.0625 Z M 2.390625 -4.328125 "/>
</g>
<g id="glyph-2-0">
<path d="M 4.796875 -6.53125 L 0.421875 -6.53125 L 0.421875 -5.734375 L 3.953125 -5.734375 C 2.390625 -3.515625 1.765625 -2.140625 1.265625 0 L 2.140625 0 C 2.5 -2.09375 3.3125 -3.890625 4.796875 -5.859375 Z M 4.796875 -6.53125 "/>
</g>
<g id="glyph-2-1">
<path d="M 4.875 -4.703125 L 4.578125 -4.96875 L 4.046875 -4.375 C 3.625 -4.78125 3.15625 -4.96875 2.515625 -4.96875 C 1.140625 -4.96875 0.328125 -4.015625 0.328125 -2.375 C 0.328125 -1.65625 0.46875 -1.109375 0.78125 -0.65625 L 0.171875 0.015625 L 0.453125 0.28125 L 1.015625 -0.359375 C 1.390625 0.015625 1.90625 0.21875 2.53125 0.21875 C 3.890625 0.21875 4.703125 -0.75 4.703125 -2.375 C 4.703125 -3.078125 4.578125 -3.59375 4.296875 -4.0625 Z M 3.734375 -3.421875 C 3.84375 -3.125 3.90625 -2.78125 3.90625 -2.375 C 3.90625 -1.203125 3.375 -0.5 2.515625 -0.5 C 2.125 -0.5 1.8125 -0.640625 1.546875 -0.9375 Z M 1.328125 -1.296875 C 1.203125 -1.609375 1.140625 -1.9375 1.140625 -2.375 C 1.140625 -3.546875 1.65625 -4.265625 2.515625 -4.265625 C 2.921875 -4.265625 3.296875 -4.078125 3.53125 -3.78125 Z M 1.328125 -1.296875 "/>
</g>
<g id="glyph-2-2">
<path d="M 4.59375 -4.9375 C 4.4375 -6.015625 3.734375 -6.671875 2.734375 -6.671875 C 2.015625 -6.671875 1.375 -6.3125 0.984375 -5.71875 C 0.578125 -5.0625 0.390625 -4.25 0.390625 -3.046875 C 0.390625 -1.921875 0.546875 -1.203125 0.953125 -0.625 C 1.296875 -0.078125 1.875 0.21875 2.59375 0.21875 C 3.828125 0.21875 4.734375 -0.71875 4.734375 -2.015625 C 4.734375 -3.25 3.90625 -4.109375 2.734375 -4.109375 C 2.078125 -4.109375 1.578125 -3.875 1.21875 -3.390625 C 1.234375 -5.03125 1.75 -5.953125 2.6875 -5.953125 C 3.25 -5.953125 3.65625 -5.578125 3.78125 -4.9375 Z M 2.625 -3.390625 C 3.40625 -3.390625 3.90625 -2.84375 3.90625 -1.953125 C 3.90625 -1.109375 3.34375 -0.5 2.59375 -0.5 C 1.84375 -0.5 1.265625 -1.140625 1.265625 -1.984375 C 1.265625 -2.828125 1.828125 -3.390625 2.625 -3.390625 Z M 2.625 -3.390625 "/>
</g>
<g id="glyph-3-0">
<path d="M 0 -2.515625 L 0 -1.25 C 0 -1.015625 0.1875 -0.828125 0.421875 -0.828125 C 0.46875 -0.828125 0.53125 -0.828125 0.5625 -0.84375 L 1.25 -1.078125 L 1.25 2.296875 L 0.28125 2.640625 C 0.109375 2.703125 0 2.875 0 3.046875 L 0 4.3125 C 0 4.53125 0.1875 4.734375 0.421875 4.734375 C 0.46875 4.734375 0.53125 4.734375 0.5625 4.703125 L 1.25 4.453125 L 1.25 7.515625 C 1.25 7.71875 1.421875 7.921875 1.625 7.921875 C 1.84375 7.921875 2.03125 7.71875 2.03125 7.515625 L 2.03125 4.171875 L 3.78125 3.53125 L 3.78125 6.59375 C 3.78125 6.796875 3.96875 6.984375 4.171875 6.984375 C 4.390625 6.984375 4.5625 6.796875 4.5625 6.59375 L 4.5625 3.25 L 5.53125 2.890625 C 5.703125 2.828125 5.8125 2.6875 5.8125 2.515625 L 5.8125 1.25 C 5.8125 1.015625 5.609375 0.828125 5.390625 0.828125 C 5.34375 0.828125 5.28125 0.828125 5.234375 0.84375 L 4.5625 1.078125 L 4.5625 -2.296875 L 5.53125 -2.640625 C 5.703125 -2.703125 5.8125 -2.875 5.8125 -3.046875 L 5.8125 -4.3125 C 5.8125 -4.53125 5.609375 -4.734375 5.390625 -4.734375 C 5.34375 -4.734375 5.28125 -4.734375 5.234375 -4.703125 L 4.5625 -4.453125 L 4.5625 -7.515625 C 4.5625 -7.71875 4.390625 -7.921875 4.171875 -7.921875 C 3.96875 -7.921875 3.78125 -7.71875 3.78125 -7.515625 L 3.78125 -4.171875 L 2.03125 -3.53125 L 2.03125 -6.59375 C 2.03125 -6.796875 1.84375 -6.984375 1.625 -6.984375 C 1.421875 -6.984375 1.25 -6.796875 1.25 -6.59375 L 1.25 -3.25 L 0.28125 -2.890625 C 0.109375 -2.828125 0 -2.6875 0 -2.515625 Z M 3.78125 -2 L 3.78125 1.375 L 2.03125 2 L 2.03125 -1.375 Z M 3.78125 -2 "/>
</g>
</g>
</defs>
<path fill="none" stroke-width="9.46451" stroke-linecap="butt" stroke-linejoin="miter" stroke="rgb(0%, 0%, 0%)" stroke-opacity="1" stroke-miterlimit="10" d="M 1418.164062 7825.664062 L 1418.164062 8024.921875 " transform="matrix(0.1, 0, 0, -0.1, -60, 833)"/>
<path fill="none" stroke-width="9.96264" stroke-linecap="round" stroke-linejoin="miter" stroke="rgb(0%, 0%, 0%)" stroke-opacity="1" stroke-miterlimit="10" d="M 3671.796875 7775.859375 L 3808.4375 7775.859375 " transform="matrix(0.1, 0, 0, -0.1, -60, 833)"/>
<path fill="none" stroke-width="9.96264" stroke-linecap="round" stroke-linejoin="miter" stroke="rgb(0%, 0%, 0%)" stroke-opacity="1" stroke-miterlimit="10" d="M 2552.96875 7775.859375 L 2689.609375 7775.859375 " transform="matrix(0.1, 0, 0, -0.1, -60, 833)"/>
<path fill="none" stroke-width="9.96264" stroke-linecap="round" stroke-linejoin="miter" stroke="rgb(0%, 0%, 0%)" stroke-opacity="1" stroke-miterlimit="10" d="M 978.125 7775.859375 L 1114.765625 7775.859375 " transform="matrix(0.1, 0, 0, -0.1, -60, 833)"/>
<path fill="none" stroke-width="9.96264" stroke-linecap="round" stroke-linejoin="miter" stroke="rgb(0%, 0%, 0%)" stroke-opacity="1" stroke-miterlimit="10" d="M 978.125 7726.054688 L 1114.765625 7726.054688 " transform="matrix(0.1, 0, 0, -0.1, -60, 833)"/>
<path fill="none" stroke-width="4.98132" stroke-linecap="round" stroke-linejoin="miter" stroke="rgb(0%, 0%, 0%)" stroke-opacity="1" stroke-miterlimit="10" d="M 711.132812 7825.664062 L 5154.023438 7825.664062 " transform="matrix(0.1, 0, 0, -0.1, -60, 833)"/>
<path fill="none" stroke-width="4.98132" stroke-linecap="round" stroke-linejoin="miter" stroke="rgb(0%, 0%, 0%)" stroke-opacity="1" stroke-miterlimit="10" d="M 711.132812 7875.46875 L 5154.023438 7875.46875 " transform="matrix(0.1, 0, 0, -0.1, -60, 833)"/>
<path fill="none" stroke-width="4.98132" stroke-linecap="round" stroke-linejoin="miter" stroke="rgb(0%, 0%, 0%)" stroke-opacity="1" stroke-miterlimit="10" d="M 711.132812 7925.273438 L 5154.023438 7925.273438 " transform="matrix(0.1, 0, 0, -0.1, -60, 833)"/>
<path fill="none" stroke-width="4.98132" stroke-linecap="round" stroke-linejoin="miter" stroke="rgb(0%, 0%, 0%)" stroke-opacity="1" stroke-miterlimit="10" d="M 711.132812 7975.117188 L 5154.023438 7975.117188 " transform="matrix(0.1, 0, 0, -0.1, -60, 833)"/>
<path fill="none" stroke-width="4.98132" stroke-linecap="round" stroke-linejoin="miter" stroke="rgb(0%, 0%, 0%)" stroke-opacity="1" stroke-miterlimit="10" d="M 711.132812 8024.921875 L 5154.023438 8024.921875 " transform="matrix(0.1, 0, 0, -0.1, -60, 833)"/>
<path fill="none" stroke-width="9.46451" stroke-linecap="butt" stroke-linejoin="miter" stroke="rgb(0%, 0%, 0%)" stroke-opacity="1" stroke-miterlimit="10" d="M 5151.796875 7825.664062 L 5151.796875 8024.921875 " transform="matrix(0.1, 0, 0, -0.1, -60, 833)"/>
<path fill="none" stroke-width="9.46451" stroke-linecap="butt" stroke-linejoin="miter" stroke="rgb(0%, 0%, 0%)" stroke-opacity="1" stroke-miterlimit="10" d="M 4631.796875 7825.664062 L 4631.796875 8024.921875 " transform="matrix(0.1, 0, 0, -0.1, -60, 833)"/>
<path fill="none" stroke-width="9.46451" stroke-linecap="butt" stroke-linejoin="miter" stroke="rgb(0%, 0%, 0%)" stroke-opacity="1" stroke-miterlimit="10" d="M 4111.835938 7825.664062 L 4111.835938 8024.921875 " transform="matrix(0.1, 0, 0, -0.1, -60, 833)"/>
<path fill="none" stroke-width="9.46451" stroke-linecap="butt" stroke-linejoin="miter" stroke="rgb(0%, 0%, 0%)" stroke-opacity="1" stroke-miterlimit="10" d="M 3520.46875 7825.664062 L 3520.46875 8024.921875 " transform="matrix(0.1, 0, 0, -0.1, -60, 833)"/>
<path fill="none" stroke-width="9.46451" stroke-linecap="butt" stroke-linejoin="miter" stroke="rgb(0%, 0%, 0%)" stroke-opacity="1" stroke-miterlimit="10" d="M 2993.007812 7825.664062 L 2993.007812 8024.921875 " transform="matrix(0.1, 0, 0, -0.1, -60, 833)"/>
<path fill="none" stroke-width="9.46451" stroke-linecap="butt" stroke-linejoin="miter" stroke="rgb(0%, 0%, 0%)" stroke-opacity="1" stroke-miterlimit="10" d="M 2473.046875 7825.664062 L 2473.046875 8024.921875 " transform="matrix(0.1, 0, 0, -0.1, -60, 833)"/>
<path fill="none" stroke-width="9.46451" stroke-linecap="butt" stroke-linejoin="miter" stroke="rgb(0%, 0%, 0%)" stroke-opacity="1" stroke-miterlimit="10" d="M 1945.625 7825.664062 L 1945.625 8024.921875 " transform="matrix(0.1, 0, 0, -0.1, -60, 833)"/>
<g fill="rgb(0%, 0%, 0%)" fill-opacity="1">
<use xlink:href="#glyph-0-0" x="249.986" y="37.98"/>
</g>
<g fill="rgb(0%, 0%, 0%)" fill-opacity="1">
<use xlink:href="#glyph-0-0" x="39.758" y="50.4335"/>
</g>
<g fill="rgb(0%, 0%, 0%)" fill-opacity="1">
<use xlink:href="#glyph-0-0" x="39.758" y="45.45225"/>
</g>
<g fill="rgb(0%, 0%, 0%)" fill-opacity="1">
<use xlink:href="#glyph-0-1" x="14.851375" y="45.45225"/>
</g>
<g fill="rgb(0%, 0%, 0%)" fill-opacity="1">
<use xlink:href="#glyph-1-0" x="92.5017" y="22.84095"/>
</g>
<g fill="rgb(0%, 0%, 0%)" fill-opacity="1">
<use xlink:href="#glyph-2-0" x="101.856" y="16.91712"/>
</g>
<g fill="rgb(0%, 0%, 0%)" fill-opacity="1">
<use xlink:href="#glyph-0-0" x="92.5017" y="52.92412"/>
</g>
<g fill="rgb(0%, 0%, 0%)" fill-opacity="1">
<use xlink:href="#glyph-0-0" x="92.5017" y="47.94287"/>
</g>
<g fill="rgb(0%, 0%, 0%)" fill-opacity="1">
<use xlink:href="#glyph-0-0" x="92.5017" y="42.96123"/>
</g>
<g fill="rgb(0%, 0%, 0%)" fill-opacity="1">
<use xlink:href="#glyph-0-0" x="92.5017" y="37.97998"/>
</g>
<g fill="rgb(0%, 0%, 0%)" fill-opacity="1">
<use xlink:href="#glyph-0-0" x="39.758" y="60.39598"/>
</g>
<g fill="rgb(0%, 0%, 0%)" fill-opacity="1">
<use xlink:href="#glyph-0-2" x="85.2791" y="47.94288"/>
</g>
<g fill="rgb(0%, 0%, 0%)" fill-opacity="1">
<use xlink:href="#glyph-1-1" x="145.2455" y="22.84088"/>
</g>
<path fill="none" stroke-width="4.98132" stroke-linecap="butt" stroke-linejoin="round" stroke="rgb(0%, 0%, 0%)" stroke-opacity="1" stroke-miterlimit="10" d="M 2156.992188 8160.820312 L 2210.3125 8160.820312 L 2183.632812 8206.679688 Z M 2156.992188 8160.820312 " transform="matrix(0.1, 0, 0, -0.1, -60, 833)"/>
<g fill="rgb(0%, 0%, 0%)" fill-opacity="1">
<use xlink:href="#glyph-0-0" x="145.245" y="45.452"/>
</g>
<g fill="rgb(0%, 0%, 0%)" fill-opacity="1">
<use xlink:href="#glyph-0-0" x="145.245" y="40.47036"/>
</g>
<g fill="rgb(0%, 0%, 0%)" fill-opacity="1">
<use xlink:href="#glyph-0-0" x="145.245" y="35.48911"/>
</g>
<g fill="rgb(0%, 0%, 0%)" fill-opacity="1">
<use xlink:href="#glyph-0-0" x="145.245" y="30.50786"/>
</g>
<g fill="rgb(0%, 0%, 0%)" fill-opacity="1">
<use xlink:href="#glyph-1-2" x="39.758" y="22.84067"/>
</g>
<g fill="rgb(0%, 0%, 0%)" fill-opacity="1">
<use xlink:href="#glyph-1-3" x="48.432207" y="22.84067"/>
</g>
<g fill="rgb(0%, 0%, 0%)" fill-opacity="1">
<use xlink:href="#glyph-2-0" x="59.3174" y="16.91684"/>
</g>
<g fill="rgb(0%, 0%, 0%)" fill-opacity="1">
<use xlink:href="#glyph-0-2" x="138.0225" y="30.50784"/>
</g>
<g fill="rgb(0%, 0%, 0%)" fill-opacity="1">
<use xlink:href="#glyph-1-4" x="197.242" y="22.84065"/>
</g>
<path fill="none" stroke-width="4.98132" stroke-linecap="butt" stroke-linejoin="round" stroke="rgb(0%, 0%, 0%)" stroke-opacity="1" stroke-miterlimit="10" d="M 2668.4375 8160.820312 L 2721.757812 8160.820312 L 2695.117188 8206.679688 Z M 2668.4375 8160.820312 " transform="matrix(0.1, 0, 0, -0.1, -60, 833)"/>
<g fill="rgb(0%, 0%, 0%)" fill-opacity="1">
<use xlink:href="#glyph-0-0" x="197.242" y="55.415"/>
</g>
<g fill="rgb(0%, 0%, 0%)" fill-opacity="1">
<use xlink:href="#glyph-0-0" x="197.242" y="50.43375"/>
</g>
<g fill="rgb(0%, 0%, 0%)" fill-opacity="1">
<use xlink:href="#glyph-0-0" x="197.242" y="45.4525"/>
</g>
<g fill="rgb(0%, 0%, 0%)" fill-opacity="1">
<use xlink:href="#glyph-0-0" x="197.242" y="40.47086"/>
</g>
<g fill="rgb(0%, 0%, 0%)" fill-opacity="1">
<use xlink:href="#glyph-1-5" x="249.9857" y="22.84116"/>
</g>
<g fill="rgb(0%, 0%, 0%)" fill-opacity="1">
<use xlink:href="#glyph-3-0" x="257.97984" y="19.85249"/>
</g>
<g fill="rgb(0%, 0%, 0%)" fill-opacity="1">
<use xlink:href="#glyph-2-1" x="263.78492" y="16.91733"/>
</g>
<g fill="rgb(0%, 0%, 0%)" fill-opacity="1">
<use xlink:href="#glyph-0-0" x="249.98572" y="47.94313"/>
</g>
<g fill="rgb(0%, 0%, 0%)" fill-opacity="1">
<use xlink:href="#glyph-0-0" x="249.98572" y="42.96149"/>
</g>
<g fill="rgb(0%, 0%, 0%)" fill-opacity="1">
<use xlink:href="#glyph-0-0" x="249.98572" y="32.99899"/>
</g>
<g fill="rgb(0%, 0%, 0%)" fill-opacity="1">
<use xlink:href="#glyph-0-0" x="39.75772" y="55.41499"/>
</g>
<g fill="rgb(0%, 0%, 0%)" fill-opacity="1">
<use xlink:href="#glyph-0-2" x="242.76272" y="47.94312"/>
</g>
<g fill="rgb(0%, 0%, 0%)" fill-opacity="1">
<use xlink:href="#glyph-1-6" x="309.12602" y="22.84112"/>
</g>
<g fill="rgb(0%, 0%, 0%)" fill-opacity="1">
<use xlink:href="#glyph-2-0" x="317.79985" y="16.91729"/>
</g>
<g fill="rgb(0%, 0%, 0%)" fill-opacity="1">
<use xlink:href="#glyph-0-0" x="309.12602" y="57.90559"/>
</g>
<g fill="rgb(0%, 0%, 0%)" fill-opacity="1">
<use xlink:href="#glyph-0-0" x="309.12602" y="52.92434"/>
</g>
<g fill="rgb(0%, 0%, 0%)" fill-opacity="1">
<use xlink:href="#glyph-0-0" x="309.12602" y="47.94309"/>
</g>
<g fill="rgb(0%, 0%, 0%)" fill-opacity="1">
<use xlink:href="#glyph-0-0" x="309.12602" y="42.96145"/>
</g>
<g fill="rgb(0%, 0%, 0%)" fill-opacity="1">
<use xlink:href="#glyph-0-2" x="295.50722" y="52.92434"/>
</g>
<g fill="rgb(0%, 0%, 0%)" fill-opacity="1">
<use xlink:href="#glyph-0-2" x="301.90292" y="47.94309"/>
</g>
<g fill="rgb(0%, 0%, 0%)" fill-opacity="1">
<use xlink:href="#glyph-1-7" x="361.12242" y="22.84109"/>
</g>
<g fill="rgb(0%, 0%, 0%)" fill-opacity="1">
<use xlink:href="#glyph-1-3" x="369.796627" y="22.84109"/>
</g>
<g fill="rgb(0%, 0%, 0%)" fill-opacity="1">
<use xlink:href="#glyph-2-0" x="380.68182" y="16.91726"/>
</g>
<g fill="rgb(0%, 0%, 0%)" fill-opacity="1">
<use xlink:href="#glyph-0-0" x="361.12242" y="50.43366"/>
</g>
<g fill="rgb(0%, 0%, 0%)" fill-opacity="1">
<use xlink:href="#glyph-0-0" x="361.12242" y="45.45241"/>
</g>
<g fill="rgb(0%, 0%, 0%)" fill-opacity="1">
<use xlink:href="#glyph-0-0" x="361.12242" y="40.47077"/>
</g>
<g fill="rgb(0%, 0%, 0%)" fill-opacity="1">
<use xlink:href="#glyph-0-0" x="361.12242" y="35.48952"/>
</g>
<g fill="rgb(0%, 0%, 0%)" fill-opacity="1">
<use xlink:href="#glyph-1-7" x="413.11892" y="22.84112"/>
</g>
<g fill="rgb(0%, 0%, 0%)" fill-opacity="1">
<use xlink:href="#glyph-1-3" x="421.793127" y="22.84112"/>
</g>
<g fill="rgb(0%, 0%, 0%)" fill-opacity="1">
<use xlink:href="#glyph-2-2" x="432.67832" y="16.91729"/>
</g>
<g fill="rgb(0%, 0%, 0%)" fill-opacity="1">
<use xlink:href="#glyph-0-0" x="413.11892" y="50.43369"/>
</g>
<g fill="rgb(0%, 0%, 0%)" fill-opacity="1">
<use xlink:href="#glyph-0-0" x="413.11892" y="45.45244"/>
</g>
<g fill="rgb(0%, 0%, 0%)" fill-opacity="1">
<use xlink:href="#glyph-0-0" x="413.11892" y="40.4708"/>
</g>
<g fill="rgb(0%, 0%, 0%)" fill-opacity="1">
<use xlink:href="#glyph-0-0" x="421.59705" y="37.98017"/>
</g>
<g fill="rgb(0%, 0%, 0%)" fill-opacity="1">
<use xlink:href="#glyph-0-3" x="407.544732" y="37.98017"/>
</g>
</svg>
