<?xml version="1.0" encoding="UTF-8"?>
<svg xmlns="http://www.w3.org/2000/svg" xmlns:xlink="http://www.w3.org/1999/xlink" width="205pt" height="94pt" viewBox="0 0 205 94">
<defs>
<g>
<g id="glyph-0-0">
<path d="M 0.375 -6.59375 L 0.5625 -6.59375 C 1.125 -6.578125 1.3125 -6.546875 1.390625 -6.453125 C 1.453125 -6.375 1.453125 -6.34375 1.453125 -5.84375 L 1.453125 -1.203125 C 1.453125 -0.71875 1.453125 -0.6875 1.390625 -0.59375 C 1.3125 -0.5 1.125 -0.453125 0.5625 -0.453125 L 0.375 -0.453125 L 0.375 0 L 3.609375 0 L 3.609375 -0.453125 L 3.40625 -0.453125 C 2.859375 -0.453125 2.671875 -0.484375 2.59375 -0.59375 C 2.546875 -0.6875 2.546875 -0.703125 2.546875 -1.203125 L 2.546875 -5.84375 C 2.546875 -6.34375 2.546875 -6.375 2.59375 -6.453125 C 2.671875 -6.546875 2.859375 -6.578125 3.40625 -6.59375 L 3.609375 -6.59375 L 3.609375 -7.046875 L 0.375 -7.046875 Z M 0.375 -6.59375 "/>
</g>
<g id="glyph-0-1">
<path d="M 1.953125 -4.546875 L 0.265625 -4.4375 L 0.265625 -4.03125 L 0.609375 -4.03125 C 0.984375 -4.015625 1.03125 -3.953125 1.03125 -3.53125 L 1.03125 -0.75 C 1.03125 -0.59375 1.015625 -0.53125 0.984375 -0.484375 C 0.90625 -0.40625 0.71875 -0.359375 0.296875 -0.359375 L 0.265625 -0.359375 L 0.265625 0 L 2.734375 0 L 2.734375 -0.359375 L 2.703125 -0.359375 C 2.046875 -0.375 1.953125 -0.421875 1.953125 -0.765625 L 1.953125 -2.21875 C 1.953125 -2.703125 2.015625 -3.140625 2.125 -3.359375 C 2.328125 -3.796875 2.78125 -4.109375 3.1875 -4.109375 C 3.453125 -4.109375 3.734375 -3.96875 3.890625 -3.765625 C 4.03125 -3.546875 4.109375 -3.25 4.109375 -2.78125 L 4.109375 -0.75 C 4.09375 -0.59375 4.078125 -0.53125 4.046875 -0.484375 C 3.96875 -0.40625 3.78125 -0.359375 3.359375 -0.359375 L 3.328125 -0.359375 L 3.328125 0 L 5.796875 0 L 5.796875 -0.359375 L 5.75 -0.359375 C 5.109375 -0.375 5.015625 -0.421875 5.015625 -0.765625 L 5.015625 -2.734375 C 5.015625 -3.4375 4.984375 -3.609375 4.8125 -3.953125 C 4.578125 -4.421875 4.078125 -4.703125 3.5 -4.703125 C 2.859375 -4.703125 2.390625 -4.40625 1.953125 -3.765625 Z M 1.953125 -4.546875 "/>
</g>
<g id="glyph-0-2">
<path d="M 1.890625 -4.546875 L 1.890625 -6.484375 L 1.5 -6.484375 C 1.390625 -5.21875 0.96875 -4.578125 0.171875 -4.515625 L 0.171875 -4.125 L 0.984375 -4.125 L 0.984375 -1.640625 C 0.984375 -0.953125 1 -0.71875 1.09375 -0.484375 C 1.25 -0.078125 1.640625 0.140625 2.203125 0.140625 C 3.09375 0.140625 3.65625 -0.515625 3.65625 -1.546875 C 3.65625 -1.609375 3.65625 -1.6875 3.640625 -1.78125 L 3.234375 -1.78125 C 3.203125 -0.90625 2.953125 -0.453125 2.46875 -0.453125 C 2.25 -0.453125 2.046875 -0.5625 1.984375 -0.734375 C 1.921875 -0.875 1.890625 -1.109375 1.890625 -1.46875 L 1.890625 -4.125 L 3.328125 -4.125 L 3.328125 -4.546875 Z M 1.890625 -4.546875 "/>
</g>
<g id="glyph-0-3">
<path d="M 4.546875 -2.203125 C 4.546875 -3.65625 3.71875 -4.703125 2.53125 -4.703125 C 1.28125 -4.703125 0.34375 -3.609375 0.34375 -2.15625 C 0.34375 -0.765625 1.234375 0.140625 2.546875 0.140625 C 3.484375 0.140625 4.140625 -0.3125 4.546875 -1.234375 L 4.203125 -1.421875 C 3.796875 -0.671875 3.390625 -0.375 2.734375 -0.375 C 2.234375 -0.375 1.875 -0.59375 1.625 -1.03125 C 1.453125 -1.3125 1.375 -1.65625 1.375 -2.203125 Z M 1.390625 -2.625 C 1.390625 -2.921875 1.421875 -3.140625 1.53125 -3.40625 C 1.734375 -4 2.046875 -4.28125 2.515625 -4.28125 C 3.109375 -4.28125 3.5 -3.765625 3.5 -2.96875 C 3.5 -2.703125 3.40625 -2.625 3.09375 -2.625 Z M 1.390625 -2.625 "/>
</g>
<g id="glyph-0-4">
<path d="M 1.9375 -4.546875 L 0.203125 -4.4375 L 0.203125 -4.03125 L 0.609375 -4.03125 C 0.984375 -4.015625 1.03125 -3.953125 1.03125 -3.53125 L 1.03125 -0.75 C 1.015625 -0.59375 1 -0.53125 0.96875 -0.484375 C 0.90625 -0.40625 0.703125 -0.359375 0.28125 -0.359375 L 0.25 -0.359375 L 0.25 0 L 2.859375 0 L 2.859375 -0.359375 L 2.671875 -0.359375 C 2.015625 -0.375 1.9375 -0.421875 1.9375 -0.765625 L 1.9375 -1.296875 C 1.9375 -2.9375 2.53125 -4.1875 3.296875 -4.234375 C 3.15625 -4.078125 3.109375 -3.96875 3.109375 -3.796875 C 3.109375 -3.484375 3.34375 -3.25 3.65625 -3.25 C 4.015625 -3.25 4.25 -3.515625 4.25 -3.90625 C 4.25 -4.390625 3.921875 -4.703125 3.40625 -4.703125 C 2.78125 -4.703125 2.25 -4.203125 1.9375 -3.34375 Z M 1.9375 -4.546875 "/>
</g>
<g id="glyph-0-5">
<path d="M 3.8125 -4.65625 L 3.46875 -4.65625 L 3.1875 -4.3125 C 2.828125 -4.578125 2.484375 -4.703125 2 -4.703125 C 1.140625 -4.703125 0.5625 -4.140625 0.5625 -3.28125 C 0.5625 -2.90625 0.6875 -2.578125 0.90625 -2.390625 C 1.140625 -2.171875 1.359375 -2.078125 1.9375 -1.9375 L 2.46875 -1.828125 C 3.234375 -1.640625 3.5 -1.453125 3.5 -1.0625 C 3.5 -0.59375 3.109375 -0.28125 2.546875 -0.28125 C 1.703125 -0.28125 1.125 -0.796875 0.890625 -1.78125 L 0.5 -1.78125 L 0.5 0.0625 L 0.84375 0.0625 L 1.1875 -0.328125 C 1.578125 -0.015625 2.015625 0.140625 2.515625 0.140625 C 3.484375 0.140625 4.109375 -0.453125 4.109375 -1.359375 C 4.109375 -1.78125 3.96875 -2.125 3.703125 -2.34375 C 3.46875 -2.546875 3.265625 -2.625 2.671875 -2.75 L 2.1875 -2.859375 C 1.65625 -2.984375 1.65625 -2.984375 1.46875 -3.078125 C 1.265625 -3.171875 1.140625 -3.375 1.140625 -3.59375 C 1.140625 -4 1.5 -4.265625 2.046875 -4.265625 C 2.40625 -4.265625 2.71875 -4.140625 2.984375 -3.875 C 3.203125 -3.65625 3.3125 -3.46875 3.46875 -3.015625 L 3.8125 -3.015625 Z M 3.8125 -4.65625 "/>
</g>
<g id="glyph-0-6">
<path d="M 3.78125 -1.4375 C 3.46875 -0.734375 3.140625 -0.453125 2.625 -0.453125 C 1.84375 -0.453125 1.359375 -1.15625 1.359375 -2.3125 C 1.359375 -3.5 1.84375 -4.28125 2.5625 -4.28125 C 2.859375 -4.28125 3.109375 -4.140625 3.109375 -3.984375 C 3.109375 -3.953125 3.09375 -3.921875 3.046875 -3.875 C 2.890625 -3.6875 2.859375 -3.578125 2.859375 -3.421875 C 2.859375 -3.09375 3.09375 -2.875 3.4375 -2.875 C 3.796875 -2.875 4.03125 -3.140625 4.03125 -3.53125 C 4.03125 -4.203125 3.375 -4.703125 2.515625 -4.703125 C 1.234375 -4.703125 0.328125 -3.65625 0.328125 -2.203125 C 0.328125 -0.8125 1.15625 0.140625 2.375 0.140625 C 3.25 0.140625 3.734375 -0.25 4.15625 -1.296875 Z M 3.78125 -1.4375 "/>
</g>
<g id="glyph-0-7">
<path d="M 4.421875 -3.140625 C 4.421875 -3.765625 4.3125 -4.078125 4.03125 -4.3125 C 3.703125 -4.578125 3.21875 -4.703125 2.59375 -4.703125 C 1.5 -4.703125 0.6875 -4.1875 0.6875 -3.46875 C 0.6875 -3.109375 0.921875 -2.875 1.265625 -2.875 C 1.578125 -2.875 1.78125 -3.078125 1.78125 -3.375 C 1.78125 -3.5 1.734375 -3.640625 1.640625 -3.765625 C 1.578125 -3.84375 1.578125 -3.859375 1.578125 -3.90625 C 1.578125 -4.109375 1.96875 -4.28125 2.4375 -4.28125 C 2.75 -4.28125 3.09375 -4.1875 3.25 -4.03125 C 3.421875 -3.875 3.5 -3.640625 3.5 -3.203125 L 3.5 -2.828125 C 2.484375 -2.640625 2.15625 -2.5625 1.6875 -2.390625 C 0.828125 -2.078125 0.4375 -1.625 0.4375 -1 C 0.4375 -0.296875 0.984375 0.140625 1.84375 0.140625 C 2.515625 0.140625 3.125 -0.125 3.546875 -0.625 C 3.703125 -0.125 3.953125 0.0625 4.40625 0.0625 C 4.84375 0.0625 5.296875 -0.21875 5.296875 -0.5 C 5.296875 -0.5625 5.265625 -0.609375 5.203125 -0.609375 C 5.171875 -0.609375 5.125 -0.609375 5.0625 -0.578125 C 4.921875 -0.515625 4.859375 -0.515625 4.78125 -0.515625 C 4.515625 -0.515625 4.421875 -0.6875 4.421875 -1.1875 Z M 3.5 -1.953125 C 3.5 -1.375 3.46875 -1.234375 3.296875 -0.984375 C 3.0625 -0.609375 2.625 -0.375 2.1875 -0.375 C 1.734375 -0.375 1.421875 -0.6875 1.421875 -1.140625 C 1.421875 -1.546875 1.625 -1.84375 2.046875 -2.046875 C 2.359375 -2.171875 2.734375 -2.28125 3.5 -2.40625 Z M 3.5 -1.953125 "/>
</g>
<g id="glyph-0-8">
<path d="M 1.96875 -4.546875 L 0.21875 -4.4375 L 0.21875 -4.03125 L 0.625 -4.03125 C 1 -4.015625 1.046875 -3.953125 1.046875 -3.53125 L 1.046875 -0.75 C 1.03125 -0.59375 1.03125 -0.53125 0.984375 -0.484375 C 0.921875 -0.40625 0.734375 -0.359375 0.3125 -0.359375 L 0.28125 -0.359375 L 0.28125 0 L 2.734375 0 L 2.734375 -0.359375 L 2.703125 -0.359375 C 2.046875 -0.375 1.96875 -0.421875 1.96875 -0.78125 L 1.96875 -2.59375 C 1.96875 -3.453125 2.4375 -4.109375 3.078125 -4.109375 C 3.640625 -4.109375 3.921875 -3.703125 3.921875 -2.90625 L 3.921875 -0.734375 C 3.90625 -0.609375 3.890625 -0.53125 3.84375 -0.484375 C 3.796875 -0.40625 3.59375 -0.359375 3.171875 -0.359375 L 3.140625 -0.359375 L 3.140625 0 L 5.609375 0 L 5.609375 -0.359375 L 5.5625 -0.359375 C 4.921875 -0.375 4.828125 -0.421875 4.828125 -0.765625 L 4.828125 -2.5 C 4.828125 -3.484375 5.28125 -4.109375 5.953125 -4.109375 C 6.515625 -4.109375 6.78125 -3.6875 6.78125 -2.796875 L 6.78125 -0.75 C 6.78125 -0.609375 6.765625 -0.53125 6.71875 -0.484375 C 6.65625 -0.40625 6.46875 -0.359375 6.046875 -0.359375 L 6 -0.359375 L 6 0 L 8.484375 0 L 8.484375 -0.359375 L 8.4375 -0.359375 C 7.796875 -0.375 7.703125 -0.421875 7.703125 -0.78125 L 7.703125 -3 C 7.703125 -3.609375 7.640625 -3.8125 7.390625 -4.140625 C 7.109375 -4.5 6.703125 -4.703125 6.234375 -4.703125 C 5.609375 -4.703125 5.140625 -4.390625 4.71875 -3.71875 C 4.546875 -4.3125 4.03125 -4.703125 3.375 -4.703125 C 2.78125 -4.703125 2.34375 -4.421875 1.96875 -3.796875 Z M 1.96875 -4.546875 "/>
</g>
<g id="glyph-0-9">
<path d="M 1.765625 -7.203125 L 0.078125 -7.09375 L 0.078125 -6.671875 L 0.421875 -6.671875 C 0.796875 -6.65625 0.84375 -6.609375 0.84375 -6.1875 L 0.84375 -2.390625 C 0.84375 -1.03125 0.78125 -0.28125 0.671875 0.140625 L 1.03125 0.140625 L 1.515625 -0.625 C 1.921875 -0.09375 2.375 0.140625 2.984375 0.140625 C 4.1875 0.140625 5.078125 -0.890625 5.078125 -2.3125 C 5.078125 -3.71875 4.265625 -4.703125 3.09375 -4.703125 C 2.484375 -4.703125 2.125 -4.5 1.765625 -3.9375 Z M 2.90625 -4.203125 C 3.640625 -4.203125 4.046875 -3.484375 4.046875 -2.203125 C 4.046875 -0.96875 3.65625 -0.28125 2.9375 -0.28125 C 2.171875 -0.28125 1.703125 -0.984375 1.703125 -2.1875 C 1.703125 -3.5 2.125 -4.203125 2.90625 -4.203125 Z M 2.90625 -4.203125 "/>
</g>
<g id="glyph-0-10">
<path d="M 2.015625 -4.546875 L 0.171875 -4.4375 L 0.171875 -4.03125 L 0.671875 -4.03125 C 1.046875 -4.015625 1.09375 -3.953125 1.09375 -3.53125 L 1.09375 -0.75 C 1.078125 -0.59375 1.078125 -0.53125 1.03125 -0.484375 C 0.96875 -0.40625 0.78125 -0.359375 0.359375 -0.359375 L 0.296875 -0.359375 L 0.296875 0 L 2.828125 0 L 2.828125 -0.359375 L 2.75 -0.359375 C 2.09375 -0.375 2.015625 -0.421875 2.015625 -0.765625 Z M 1.546875 -6.984375 C 1.234375 -6.984375 0.984375 -6.734375 0.984375 -6.421875 C 0.984375 -6.109375 1.234375 -5.84375 1.546875 -5.84375 C 1.859375 -5.84375 2.125 -6.109375 2.125 -6.421875 C 2.125 -6.734375 1.859375 -6.984375 1.546875 -6.984375 Z M 1.546875 -6.984375 "/>
</g>
<g id="glyph-0-11">
<path d="M 2.46875 -4.703125 C 1.265625 -4.703125 0.328125 -3.640625 0.328125 -2.265625 C 0.328125 -0.921875 1.265625 0.140625 2.4375 0.140625 C 3.609375 0.140625 4.546875 -0.921875 4.546875 -2.28125 C 4.546875 -3.609375 3.609375 -4.703125 2.46875 -4.703125 Z M 2.46875 -4.28125 C 3.140625 -4.28125 3.53125 -3.5625 3.53125 -2.28125 C 3.53125 -0.984375 3.140625 -0.28125 2.4375 -0.28125 C 1.734375 -0.28125 1.359375 -0.984375 1.359375 -2.265625 C 1.359375 -3.59375 1.734375 -4.28125 2.46875 -4.28125 Z M 2.46875 -4.28125 "/>
</g>
<g id="glyph-0-12">
</g>
<g id="glyph-0-13">
<path d="M 3.71875 0.0625 L 5.40625 0 L 5.40625 -0.421875 L 5.234375 -0.421875 C 4.671875 -0.453125 4.625 -0.515625 4.625 -1.140625 L 4.625 -7.203125 L 2.71875 -7.09375 L 2.71875 -6.671875 L 3.296875 -6.671875 C 3.65625 -6.65625 3.71875 -6.609375 3.71875 -6.1875 L 3.71875 -3.96875 C 3.34375 -4.46875 2.9375 -4.703125 2.359375 -4.703125 C 1.265625 -4.703125 0.421875 -3.640625 0.421875 -2.234375 C 0.421875 -0.84375 1.234375 0.140625 2.359375 0.140625 C 2.984375 0.140625 3.40625 -0.125 3.71875 -0.703125 Z M 2.5625 -4.171875 C 2.953125 -4.171875 3.34375 -3.875 3.515625 -3.421875 C 3.640625 -3.140625 3.703125 -2.734375 3.703125 -2.25 C 3.703125 -1.109375 3.25 -0.375 2.546875 -0.375 C 1.859375 -0.375 1.453125 -1.03125 1.453125 -2.109375 C 1.453125 -2.703125 1.5 -3.140625 1.625 -3.453125 C 1.796875 -3.890625 2.15625 -4.171875 2.5625 -4.171875 Z M 2.5625 -4.171875 "/>
</g>
<g id="glyph-0-14">
<path d="M 2 -7.203125 L 0.1875 -7.09375 L 0.1875 -6.671875 L 0.671875 -6.671875 C 1.03125 -6.65625 1.078125 -6.609375 1.078125 -6.1875 L 1.078125 -0.75 C 1.0625 -0.59375 1.0625 -0.53125 1.015625 -0.484375 C 0.953125 -0.40625 0.765625 -0.359375 0.34375 -0.359375 L 0.28125 -0.359375 L 0.28125 0 L 2.796875 0 L 2.796875 -0.359375 L 2.734375 -0.359375 C 2.078125 -0.375 2 -0.421875 2 -0.765625 Z M 2 -7.203125 "/>
</g>
<g id="glyph-1-0">
<path d="M 8.625 -6.5625 C 8.25 -8.640625 7.046875 -9.65625 4.96875 -9.65625 C 3.6875 -9.65625 2.65625 -9.25 1.953125 -8.46875 C 1.09375 -7.53125 0.625 -6.171875 0.625 -4.640625 C 0.625 -3.078125 1.109375 -1.734375 2 -0.8125 C 2.734375 -0.046875 3.671875 0.296875 4.90625 0.296875 C 7.234375 0.296875 8.53125 -0.953125 8.828125 -3.46875 L 7.578125 -3.46875 C 7.46875 -2.8125 7.34375 -2.375 7.140625 -2 C 6.75 -1.21875 5.9375 -0.765625 4.921875 -0.765625 C 3.03125 -0.765625 1.84375 -2.28125 1.84375 -4.65625 C 1.84375 -7.09375 2.96875 -8.59375 4.828125 -8.59375 C 5.59375 -8.59375 6.3125 -8.359375 6.703125 -7.984375 C 7.046875 -7.65625 7.25 -7.265625 7.390625 -6.5625 Z M 8.625 -6.5625 "/>
</g>
<g id="glyph-1-1">
<path d="M 2.390625 -4.328125 L 7.5625 -4.328125 L 7.5625 -5.390625 L 2.390625 -5.390625 L 2.390625 -8.4375 L 7.75 -8.4375 L 7.75 -9.5 L 1.171875 -9.5 L 1.171875 0 L 7.984375 0 L 7.984375 -1.0625 L 2.390625 -1.0625 Z M 2.390625 -4.328125 "/>
</g>
<g id="glyph-1-2">
<path d="M 0.90625 -6.828125 L 0.90625 0 L 2 0 L 2 -4.28125 C 2 -5.28125 2.71875 -6.078125 3.609375 -6.078125 C 4.421875 -6.078125 4.875 -5.578125 4.875 -4.703125 L 4.875 0 L 5.96875 0 L 5.96875 -4.28125 C 5.96875 -5.28125 6.6875 -6.078125 7.578125 -6.078125 C 8.359375 -6.078125 8.828125 -5.5625 8.828125 -4.703125 L 8.828125 0 L 9.9375 0 L 9.9375 -5.125 C 9.9375 -6.34375 9.21875 -7.03125 7.953125 -7.03125 C 7.03125 -7.03125 6.484375 -6.75 5.84375 -5.984375 C 5.453125 -6.71875 4.90625 -7.03125 4.015625 -7.03125 C 3.09375 -7.03125 2.484375 -6.6875 1.921875 -5.859375 L 1.921875 -6.828125 Z M 0.90625 -6.828125 "/>
</g>
<g id="glyph-1-3">
<path d="M 2.390625 -4.328125 L 6.921875 -4.328125 L 6.921875 -5.390625 L 2.390625 -5.390625 L 2.390625 -8.4375 L 7.546875 -8.4375 L 7.546875 -9.5 L 1.171875 -9.5 L 1.171875 0 L 2.390625 0 Z M 2.390625 -4.328125 "/>
</g>
<g id="glyph-1-4">
<path d="M 1.03125 0 L 5.3125 0 C 6.21875 0 6.875 -0.25 7.390625 -0.796875 C 7.859375 -1.296875 8.125 -1.96875 8.125 -2.703125 C 8.125 -3.859375 7.59375 -4.546875 6.390625 -5.015625 C 7.265625 -5.421875 7.703125 -6.109375 7.703125 -7.09375 C 7.703125 -7.796875 7.4375 -8.390625 6.953125 -8.828125 C 6.4375 -9.296875 5.796875 -9.5 4.890625 -9.5 L 1.03125 -9.5 Z M 2.234375 -5.40625 L 2.234375 -8.4375 L 4.59375 -8.4375 C 5.265625 -8.4375 5.640625 -8.34375 5.96875 -8.09375 C 6.3125 -7.828125 6.484375 -7.4375 6.484375 -6.921875 C 6.484375 -6.390625 6.3125 -6 5.96875 -5.75 C 5.640625 -5.5 5.265625 -5.40625 4.59375 -5.40625 Z M 2.234375 -1.0625 L 2.234375 -4.34375 L 5.203125 -4.34375 C 6.265625 -4.34375 6.90625 -3.734375 6.90625 -2.703125 C 6.90625 -1.6875 6.265625 -1.0625 5.203125 -1.0625 Z M 2.234375 -1.0625 "/>
</g>
<g id="glyph-2-0">
<path d="M 6.25 -1.296875 C 6.25 -1.09375 6.171875 -0.890625 6.03125 -0.734375 C 5.5 -0.078125 2.234375 2.109375 1.453125 2.109375 C 1 2.109375 0.625 1.75 0.625 1.296875 C 0.625 1.09375 0.671875 0.890625 0.8125 0.734375 C 1.359375 0.078125 4.640625 -2.109375 5.421875 -2.109375 C 5.875 -2.109375 6.25 -1.75 6.25 -1.296875 Z M 5.21875 -2.703125 C 3.234375 -2.703125 1.96875 -2.046875 1.46875 -1.71875 C 0.3125 -0.9375 0 0.78125 0 1.296875 C 0 2.4375 0.84375 2.703125 1.65625 2.703125 C 3.640625 2.703125 4.875 2.046875 5.375 1.71875 C 6.53125 0.9375 6.859375 -0.78125 6.859375 -1.296875 C 6.859375 -2.4375 6.03125 -2.703125 5.21875 -2.703125 Z M 5.21875 -2.703125 "/>
</g>
<g id="glyph-2-1">
<path d="M 5.296875 12.65625 L 5.3125 11.796875 L 5.234375 11.796875 C 4.265625 11.796875 3.421875 11.28125 2.90625 10.5 C 3.109375 10.578125 3.3125 10.625 3.53125 10.625 C 4.5625 10.625 5.421875 9.765625 5.421875 8.71875 C 5.421875 7.609375 4.609375 6.671875 3.53125 6.671875 C 2.34375 6.671875 1.296875 7.5625 1.296875 8.71875 C 1.296875 10.890625 3.03125 12.65625 5.171875 12.65625 Z M 9.1875 4.046875 C 8.9375 1.8125 8.359375 -1.234375 7.984375 -3.015625 C 10.125 -2.78125 11.4375 -1.015625 11.4375 0.78125 C 11.4375 2.25 10.53125 3.5625 9.1875 4.046875 Z M 1.46875 -0.5625 C 1.46875 -3.75 3.578125 -6.171875 5.71875 -8.59375 C 6.0625 -7.4375 6.359375 -6.25 6.640625 -5.09375 C 4.609375 -4.640625 3.453125 -2.921875 3.453125 -1.171875 C 3.453125 1.3125 5.65625 2.546875 5.953125 2.546875 C 6.203125 2.546875 6.390625 2.328125 6.390625 2.109375 C 6.390625 2.015625 6.359375 1.90625 6.25 1.8125 C 5.140625 1.171875 4.640625 0.234375 4.640625 -0.640625 C 4.640625 -1.796875 5.53125 -2.84375 7.109375 -3.015625 C 7.796875 0.203125 8.234375 2.96875 8.359375 4.25 C 7.671875 4.359375 6.75 4.359375 6.734375 4.359375 C 4.28125 4.359375 1.46875 2.328125 1.46875 -0.5625 Z M 4.984375 -11.015625 C 2.65625 -8.328125 0.046875 -5.75 0.046875 -2.234375 C 0.046875 1.640625 2.828125 5.21875 6.671875 5.21875 C 7.5625 5.21875 8.34375 5.078125 8.453125 5.0625 C 8.5 5.671875 8.53125 6.28125 8.53125 6.890625 C 8.53125 7.25 8.5 7.625 8.484375 7.984375 C 8.359375 9.953125 7.171875 11.75 5.3125 11.796875 L 5.296875 12.65625 C 7.5625 12.59375 9.1875 10.484375 9.328125 8.109375 C 9.34375 7.734375 9.359375 7.328125 9.359375 6.953125 C 9.359375 6.25 9.328125 5.5625 9.265625 4.859375 C 11.375 4.1875 12.84375 2.21875 12.84375 -0.046875 C 12.84375 -2.6875 10.84375 -5.234375 7.75 -5.234375 C 7.625 -5.234375 7.53125 -5.21875 7.484375 -5.21875 C 7.15625 -6.59375 6.796875 -7.984375 6.375 -9.34375 C 8.25 -11.515625 9.953125 -13.75 9.953125 -16.59375 C 9.953125 -18.84375 8.671875 -22.140625 7.3125 -23.734375 C 7.1875 -23.828125 7.03125 -23.828125 6.90625 -23.734375 C 5.046875 -22.375 3.9375 -20.203125 3.9375 -17.90625 C 3.9375 -14.40625 4.40625 -12.921875 4.984375 -11.015625 Z M 8.53125 -18.25 C 8.53125 -15.734375 7.21875 -13.71875 5.625 -11.796875 C 5.140625 -13.375 4.90625 -14.625 4.90625 -15.65625 C 4.90625 -17.84375 6.15625 -19.859375 8.125 -20.8125 C 8.546875 -19.5625 8.53125 -18.921875 8.53125 -18.25 Z M 8.53125 -18.25 "/>
</g>
<g id="glyph-2-2">
<path d="M 0.53125 -0.8125 C 0.5625 -1.46875 0.96875 -2.078125 1.59375 -2.078125 C 2.171875 -2.078125 2.453125 -1.390625 2.453125 -0.734375 C 2.453125 0.4375 1.5 1.28125 0.59375 2.03125 C 0.53125 1.59375 0.515625 1.15625 0.515625 0.71875 L 0.515625 0.5 Z M -0.296875 2.75 C -0.296875 3.03125 -0.09375 3.25 0.15625 3.25 C 0.578125 3.25 0.75 2.75 1.0625 2.484375 C 2.265625 1.453125 3.984375 0.71875 3.984375 -0.875 C 3.984375 -1.953125 3.25 -2.90625 2.21875 -2.90625 C 1.546875 -2.90625 0.890625 -2.65625 0.390625 -2.234375 L 0.53125 -9.109375 C 0.375 -9.203125 0.171875 -9.265625 0 -9.265625 C -0.171875 -9.265625 -0.375 -9.203125 -0.53125 -9.109375 Z M -0.296875 2.75 "/>
</g>
<g id="glyph-2-3">
<path d="M 4.25 -2.234375 C 5.140625 -2.234375 6.90625 -1.546875 6.90625 0.484375 C 6.90625 1.546875 6.4375 2.234375 5.53125 2.234375 C 4.640625 2.234375 2.875 1.546875 2.875 -0.484375 C 2.875 -1.546875 3.34375 -2.234375 4.25 -2.234375 Z M 4.875 -2.703125 C 2.015625 -2.703125 0 -1.421875 0 0 C 0 1.421875 2.015625 2.703125 4.875 2.703125 C 7.75 2.703125 9.78125 1.421875 9.78125 0 C 9.78125 -1.421875 7.75 -2.703125 4.875 -2.703125 Z M 4.875 -2.703125 "/>
</g>
<g id="glyph-3-0">
<path d="M 4.796875 -6.53125 L 0.421875 -6.53125 L 0.421875 -5.734375 L 3.953125 -5.734375 C 2.390625 -3.515625 1.765625 -2.140625 1.265625 0 L 2.140625 0 C 2.5 -2.09375 3.3125 -3.890625 4.796875 -5.859375 Z M 4.796875 -6.53125 "/>
</g>
<g id="glyph-4-0">
<path d="M 0.5625 -0.859375 C 0.59375 -1.5625 1.03125 -2.203125 1.6875 -2.203125 C 2.296875 -2.203125 2.59375 -1.484375 2.59375 -0.78125 C 2.59375 0.46875 1.578125 1.34375 0.640625 2.15625 C 0.5625 1.6875 0.546875 1.21875 0.546875 0.765625 L 0.546875 0.53125 Z M -0.3125 2.90625 C -0.3125 3.203125 -0.109375 3.4375 0.171875 3.4375 C 0.609375 3.4375 0.796875 2.90625 1.125 2.640625 C 2.40625 1.546875 4.21875 0.765625 4.21875 -0.921875 C 4.21875 -2.0625 3.4375 -3.078125 2.34375 -3.078125 C 1.640625 -3.078125 0.953125 -2.8125 0.421875 -2.359375 L 0.5625 -9.640625 C 0.40625 -9.75 0.1875 -9.8125 0 -9.8125 C -0.1875 -9.8125 -0.40625 -9.75 -0.5625 -9.640625 Z M -0.3125 2.90625 "/>
</g>
</g>
</defs>
<path fill="none" stroke-width="9.46451" stroke-linecap="butt" stroke-linejoin="miter" stroke="rgb(0%, 0%, 0%)" stroke-opacity="1" stroke-miterlimit="10" d="M 1015.507812 7779.101562 L 1015.507812 7978.359375 " transform="matrix(0.1, 0, 0, -0.1, -18, 833)"/>
<path fill="none" stroke-width="9.96264" stroke-linecap="round" stroke-linejoin="miter" stroke="rgb(0%, 0%, 0%)" stroke-opacity="1" stroke-miterlimit="10" d="M 1696.640625 7729.296875 L 1833.28125 7729.296875 " transform="matrix(0.1, 0, 0, -0.1, -18, 833)"/>
<path fill="none" stroke-width="9.96264" stroke-linecap="round" stroke-linejoin="miter" stroke="rgb(0%, 0%, 0%)" stroke-opacity="1" stroke-miterlimit="10" d="M 1432.65625 7729.296875 L 1517.148438 7729.296875 " transform="matrix(0.1, 0, 0, -0.1, -18, 833)"/>
<path fill="none" stroke-width="9.96264" stroke-linecap="round" stroke-linejoin="miter" stroke="rgb(0%, 0%, 0%)" stroke-opacity="1" stroke-miterlimit="10" d="M 560.234375 7729.296875 L 653.164062 7729.296875 " transform="matrix(0.1, 0, 0, -0.1, -18, 833)"/>
<path fill="none" stroke-width="4.98132" stroke-linecap="round" stroke-linejoin="miter" stroke="rgb(0%, 0%, 0%)" stroke-opacity="1" stroke-miterlimit="10" d="M 285.9375 7779.101562 L 2121.875 7779.101562 " transform="matrix(0.1, 0, 0, -0.1, -18, 833)"/>
<path fill="none" stroke-width="4.98132" stroke-linecap="round" stroke-linejoin="miter" stroke="rgb(0%, 0%, 0%)" stroke-opacity="1" stroke-miterlimit="10" d="M 285.9375 7828.90625 L 2121.875 7828.90625 " transform="matrix(0.1, 0, 0, -0.1, -18, 833)"/>
<path fill="none" stroke-width="4.98132" stroke-linecap="round" stroke-linejoin="miter" stroke="rgb(0%, 0%, 0%)" stroke-opacity="1" stroke-miterlimit="10" d="M 285.9375 7878.710938 L 2121.875 7878.710938 " transform="matrix(0.1, 0, 0, -0.1, -18, 833)"/>
<path fill="none" stroke-width="4.98132" stroke-linecap="round" stroke-linejoin="miter" stroke="rgb(0%, 0%, 0%)" stroke-opacity="1" stroke-miterlimit="10" d="M 285.9375 7928.554688 L 2121.875 7928.554688 " transform="matrix(0.1, 0, 0, -0.1, -18, 833)"/>
<path fill="none" stroke-width="4.98132" stroke-linecap="round" stroke-linejoin="miter" stroke="rgb(0%, 0%, 0%)" stroke-opacity="1" stroke-miterlimit="10" d="M 285.9375 7978.359375 L 2121.875 7978.359375 " transform="matrix(0.1, 0, 0, -0.1, -18, 833)"/>
<path fill="none" stroke-width="9.46451" stroke-linecap="butt" stroke-linejoin="miter" stroke="rgb(0%, 0%, 0%)" stroke-opacity="1" stroke-miterlimit="10" d="M 2119.648438 7779.101562 L 2119.648438 7978.359375 " transform="matrix(0.1, 0, 0, -0.1, -18, 833)"/>
<path fill="none" stroke-width="9.46451" stroke-linecap="butt" stroke-linejoin="miter" stroke="rgb(0%, 0%, 0%)" stroke-opacity="1" stroke-miterlimit="10" d="M 1666.523438 7779.101562 L 1666.523438 7978.359375 " transform="matrix(0.1, 0, 0, -0.1, -18, 833)"/>
<g fill="rgb(0%, 0%, 0%)" fill-opacity="1">
<use xlink:href="#glyph-0-0" x="66.8863" y="82.876"/>
</g>
<g fill="rgb(0%, 0%, 0%)" fill-opacity="1">
<use xlink:href="#glyph-0-1" x="70.798016" y="82.876"/>
</g>
<g fill="rgb(0%, 0%, 0%)" fill-opacity="1">
<use xlink:href="#glyph-0-2" x="76.75075" y="82.876"/>
</g>
<g fill="rgb(0%, 0%, 0%)" fill-opacity="1">
<use xlink:href="#glyph-0-3" x="80.66247" y="82.876"/>
</g>
<g fill="rgb(0%, 0%, 0%)" fill-opacity="1">
<use xlink:href="#glyph-0-4" x="85.594895" y="82.876"/>
</g>
<g fill="rgb(0%, 0%, 0%)" fill-opacity="1">
<use xlink:href="#glyph-0-5" x="89.846847" y="82.876"/>
</g>
<g fill="rgb(0%, 0%, 0%)" fill-opacity="1">
<use xlink:href="#glyph-0-6" x="94.439427" y="82.876"/>
</g>
<g fill="rgb(0%, 0%, 0%)" fill-opacity="1">
<use xlink:href="#glyph-0-7" x="98.861301" y="82.876"/>
</g>
<g fill="rgb(0%, 0%, 0%)" fill-opacity="1">
<use xlink:href="#glyph-0-8" x="104.303875" y="82.876"/>
</g>
<g fill="rgb(0%, 0%, 0%)" fill-opacity="1">
<use xlink:href="#glyph-0-9" x="112.977695" y="82.876"/>
</g>
<g fill="rgb(0%, 0%, 0%)" fill-opacity="1">
<use xlink:href="#glyph-0-10" x="118.420269" y="82.876"/>
</g>
<g fill="rgb(0%, 0%, 0%)" fill-opacity="1">
<use xlink:href="#glyph-0-11" x="121.481987" y="82.876"/>
</g>
<g fill="rgb(0%, 0%, 0%)" fill-opacity="1">
<use xlink:href="#glyph-0-12" x="126.414412" y="82.876"/>
</g>
<g fill="rgb(0%, 0%, 0%)" fill-opacity="1">
<use xlink:href="#glyph-0-8" x="129.135894" y="82.876"/>
</g>
<g fill="rgb(0%, 0%, 0%)" fill-opacity="1">
<use xlink:href="#glyph-0-11" x="137.809714" y="82.876"/>
</g>
<g fill="rgb(0%, 0%, 0%)" fill-opacity="1">
<use xlink:href="#glyph-0-13" x="142.742139" y="82.876"/>
</g>
<g fill="rgb(0%, 0%, 0%)" fill-opacity="1">
<use xlink:href="#glyph-0-7" x="148.354632" y="82.876"/>
</g>
<g fill="rgb(0%, 0%, 0%)" fill-opacity="1">
<use xlink:href="#glyph-0-14" x="153.797207" y="82.876"/>
</g>
<g fill="rgb(0%, 0%, 0%)" fill-opacity="1">
<use xlink:href="#glyph-0-3" x="156.858924" y="82.876"/>
</g>
<path fill="none" stroke-width="4.98132" stroke-linecap="round" stroke-linejoin="miter" stroke="rgb(0%, 0%, 0%)" stroke-opacity="1" stroke-miterlimit="10" d="M 1480.078125 7600.585938 L 1505 7650.390625 " transform="matrix(0.1, 0, 0, -0.1, -18, 833)"/>
<path fill="none" stroke-width="4.98132" stroke-linecap="round" stroke-linejoin="miter" stroke="rgb(0%, 0%, 0%)" stroke-opacity="1" stroke-miterlimit="10" d="M 1166.679688 7600.585938 L 1141.757812 7650.390625 " transform="matrix(0.1, 0, 0, -0.1, -18, 833)"/>
<path fill="none" stroke-width="4.98132" stroke-linecap="round" stroke-linejoin="miter" stroke="rgb(0%, 0%, 0%)" stroke-opacity="1" stroke-miterlimit="10" d="M 1166.679688 7600.585938 L 1480.078125 7600.585938 " transform="matrix(0.1, 0, 0, -0.1, -18, 833)"/>
<g fill="rgb(0%, 0%, 0%)" fill-opacity="1">
<use xlink:href="#glyph-1-0" x="39.2383" y="22.712"/>
</g>
<path fill="none" stroke-width="4.98132" stroke-linecap="butt" stroke-linejoin="round" stroke="rgb(0%, 0%, 0%)" stroke-opacity="1" stroke-miterlimit="10" d="M 668.398438 8162.109375 L 721.71875 8162.109375 L 695.078125 8207.96875 Z M 668.398438 8162.109375 " transform="matrix(0.1, 0, 0, -0.1, -18, 833)"/>
<g fill="rgb(0%, 0%, 0%)" fill-opacity="1">
<use xlink:href="#glyph-2-0" x="39.2383" y="60.072"/>
</g>
<g fill="rgb(0%, 0%, 0%)" fill-opacity="1">
<use xlink:href="#glyph-2-0" x="39.2383" y="55.09075"/>
</g>
<g fill="rgb(0%, 0%, 0%)" fill-opacity="1">
<use xlink:href="#glyph-2-0" x="39.2383" y="50.1095"/>
</g>
<g fill="rgb(0%, 0%, 0%)" fill-opacity="1">
<use xlink:href="#glyph-2-0" x="39.2383" y="45.12786"/>
</g>
<g fill="rgb(0%, 0%, 0%)" fill-opacity="1">
<use xlink:href="#glyph-2-1" x="14.3317" y="50.1095"/>
</g>
<path fill="none" stroke-width="3.98506" stroke-linecap="butt" stroke-linejoin="round" stroke="rgb(0%, 0%, 0%)" stroke-opacity="1" stroke-miterlimit="10" d="M 636.523438 7744.179688 L 638.984375 7744.179688 L 638.984375 8042.773438 L 636.523438 8042.773438 Z M 636.523438 7744.179688 " transform="matrix(0.1, 0, 0, -0.1, -18, 833)"/>
<path fill-rule="nonzero" fill="rgb(0%, 0%, 0%)" fill-opacity="1" d="M 45.652344 58.582031 L 45.898438 58.582031 L 45.898438 28.722656 L 45.652344 28.722656 Z M 45.652344 58.582031 "/>
<g fill="rgb(0%, 0%, 0%)" fill-opacity="1">
<use xlink:href="#glyph-1-1" x="60.5352" y="22.712"/>
</g>
<g fill="rgb(0%, 0%, 0%)" fill-opacity="1">
<use xlink:href="#glyph-1-2" x="69.209401" y="22.712"/>
</g>
<g fill="rgb(0%, 0%, 0%)" fill-opacity="1">
<use xlink:href="#glyph-3-0" x="80.0942" y="16.78817"/>
</g>
<g fill="rgb(0%, 0%, 0%)" fill-opacity="1">
<use xlink:href="#glyph-2-0" x="60.5352" y="55.09047"/>
</g>
<g fill="rgb(0%, 0%, 0%)" fill-opacity="1">
<use xlink:href="#glyph-2-0" x="60.5352" y="50.10922"/>
</g>
<g fill="rgb(0%, 0%, 0%)" fill-opacity="1">
<use xlink:href="#glyph-2-0" x="60.5352" y="45.12758"/>
</g>
<g fill="rgb(0%, 0%, 0%)" fill-opacity="1">
<use xlink:href="#glyph-2-0" x="60.5352" y="40.14633"/>
</g>
<path fill="none" stroke-width="3.98506" stroke-linecap="butt" stroke-linejoin="round" stroke="rgb(0%, 0%, 0%)" stroke-opacity="1" stroke-miterlimit="10" d="M 849.492188 7793.984375 L 851.953125 7793.984375 L 851.953125 8075.976562 L 849.492188 8075.976562 Z M 849.492188 7793.984375 " transform="matrix(0.1, 0, 0, -0.1, -18, 833)"/>
<path fill-rule="nonzero" fill="rgb(0%, 0%, 0%)" fill-opacity="1" d="M 66.949219 53.601562 L 67.195312 53.601562 L 67.195312 25.402344 L 66.949219 25.402344 Z M 66.949219 53.601562 "/>
<g fill="rgb(0%, 0%, 0%)" fill-opacity="1">
<use xlink:href="#glyph-1-3" x="96.177" y="22.712"/>
</g>
<g fill="rgb(0%, 0%, 0%)" fill-opacity="1">
<use xlink:href="#glyph-1-2" x="104.170339" y="22.712"/>
</g>
<g fill="rgb(0%, 0%, 0%)" fill-opacity="1">
<use xlink:href="#glyph-3-0" x="115.0555" y="16.78817"/>
</g>
<g fill="rgb(0%, 0%, 0%)" fill-opacity="1">
<use xlink:href="#glyph-2-0" x="96.177" y="52.59987"/>
</g>
<g fill="rgb(0%, 0%, 0%)" fill-opacity="1">
<use xlink:href="#glyph-2-0" x="96.177" y="47.61823"/>
</g>
<g fill="rgb(0%, 0%, 0%)" fill-opacity="1">
<use xlink:href="#glyph-2-0" x="96.177" y="42.63698"/>
</g>
<g fill="rgb(0%, 0%, 0%)" fill-opacity="1">
<use xlink:href="#glyph-2-0" x="96.177" y="37.65573"/>
</g>
<path fill="none" stroke-width="3.98506" stroke-linecap="butt" stroke-linejoin="round" stroke="rgb(0%, 0%, 0%)" stroke-opacity="1" stroke-miterlimit="10" d="M 1143.789062 7664.84375 L 1146.25 7664.84375 L 1146.25 7938.554688 L 1143.789062 7938.554688 Z M 1143.789062 7664.84375 " transform="matrix(0.1, 0, 0, -0.1, -18, 833)"/>
<path fill-rule="nonzero" fill="rgb(0%, 0%, 0%)" fill-opacity="1" d="M 96.378906 66.515625 L 96.625 66.515625 L 96.625 39.144531 L 96.378906 39.144531 Z M 96.378906 66.515625 "/>
<g fill="rgb(0%, 0%, 0%)" fill-opacity="1">
<use xlink:href="#glyph-2-2" x="87.611" y="47.618"/>
</g>
<g fill="rgb(0%, 0%, 0%)" fill-opacity="1">
<use xlink:href="#glyph-2-2" x="90.44928" y="37.6555"/>
</g>
<g fill="rgb(0%, 0%, 0%)" fill-opacity="1">
<use xlink:href="#glyph-1-4" x="125.63838" y="22.7118"/>
</g>
<g fill="rgb(0%, 0%, 0%)" fill-opacity="1">
<use xlink:href="#glyph-4-0" x="135.41768" y="21.21727"/>
</g>
<g fill="rgb(0%, 0%, 0%)" fill-opacity="1">
<use xlink:href="#glyph-3-0" x="139.63916" y="16.78797"/>
</g>
<g fill="rgb(0%, 0%, 0%)" fill-opacity="1">
<use xlink:href="#glyph-2-0" x="125.63836" y="62.56217"/>
</g>
<g fill="rgb(0%, 0%, 0%)" fill-opacity="1">
<use xlink:href="#glyph-2-0" x="125.63836" y="57.58092"/>
</g>
<g fill="rgb(0%, 0%, 0%)" fill-opacity="1">
<use xlink:href="#glyph-2-0" x="125.63836" y="52.59967"/>
</g>
<g fill="rgb(0%, 0%, 0%)" fill-opacity="1">
<use xlink:href="#glyph-2-0" x="125.63836" y="47.61803"/>
</g>
<path fill="none" stroke-width="3.98506" stroke-linecap="butt" stroke-linejoin="round" stroke="rgb(0%, 0%, 0%)" stroke-opacity="1" stroke-miterlimit="10" d="M 1500.507812 7719.257812 L 1502.96875 7719.257812 L 1502.96875 8026.171875 L 1500.507812 8026.171875 Z M 1500.507812 7719.257812 " transform="matrix(0.1, 0, 0, -0.1, -18, 833)"/>
<path fill-rule="nonzero" fill="rgb(0%, 0%, 0%)" fill-opacity="1" d="M 132.050781 61.074219 L 132.296875 61.074219 L 132.296875 30.382812 L 132.050781 30.382812 Z M 132.050781 61.074219 "/>
<g fill="rgb(0%, 0%, 0%)" fill-opacity="1">
<use xlink:href="#glyph-2-2" x="119.909" y="62.562"/>
</g>
<g fill="rgb(0%, 0%, 0%)" fill-opacity="1">
<use xlink:href="#glyph-1-0" x="153.6098" y="22.7116"/>
</g>
<path fill="none" stroke-width="4.98132" stroke-linecap="butt" stroke-linejoin="round" stroke="rgb(0%, 0%, 0%)" stroke-opacity="1" stroke-miterlimit="10" d="M 1812.148438 8162.109375 L 1865.46875 8162.109375 L 1838.789062 8207.96875 Z M 1812.148438 8162.109375 " transform="matrix(0.1, 0, 0, -0.1, -18, 833)"/>
<g fill="rgb(0%, 0%, 0%)" fill-opacity="1">
<use xlink:href="#glyph-2-3" x="153.61" y="60.072"/>
</g>
<g fill="rgb(0%, 0%, 0%)" fill-opacity="1">
<use xlink:href="#glyph-2-3" x="153.61" y="55.09075"/>
</g>
<g fill="rgb(0%, 0%, 0%)" fill-opacity="1">
<use xlink:href="#glyph-2-3" x="153.61" y="50.1095"/>
</g>
<g fill="rgb(0%, 0%, 0%)" fill-opacity="1">
<use xlink:href="#glyph-2-3" x="153.61" y="45.12786"/>
</g>
</svg>
