<?xml version="1.0" encoding="UTF-8"?>
<svg xmlns="http://www.w3.org/2000/svg" xmlns:xlink="http://www.w3.org/1999/xlink" width="201pt" height="68pt" viewBox="0 0 201 68">
<defs>
<g>
<g id="glyph-0-0">
<path d="M 7 -7.984375 L 6.578125 -7.984375 L 6.140625 -7.34375 C 5.34375 -7.921875 4.9375 -8.078125 4.1875 -8.078125 C 3.140625 -8.078125 2.25 -7.640625 1.515625 -6.765625 C 0.828125 -5.921875 0.5 -5 0.5 -3.875 C 0.5 -1.515625 2.03125 0.171875 4.1875 0.171875 C 5.953125 0.171875 7.0625 -0.859375 7.3125 -2.703125 L 6.796875 -2.796875 C 6.5 -1.15625 5.671875 -0.34375 4.328125 -0.34375 C 2.703125 -0.34375 1.9375 -1.46875 1.9375 -3.828125 C 1.9375 -5.078125 2.109375 -5.90625 2.46875 -6.5625 C 2.8125 -7.171875 3.484375 -7.5625 4.1875 -7.5625 C 4.96875 -7.5625 5.640625 -7.15625 6.0625 -6.453125 C 6.265625 -6.09375 6.421875 -5.6875 6.6875 -4.8125 L 7.15625 -4.8125 Z M 7 -7.984375 "/>
</g>
<g id="glyph-0-1">
<path d="M 0.3125 0 L 4 0 C 4.96875 0 5.71875 -0.15625 6.296875 -0.484375 C 7.40625 -1.109375 8.015625 -2.359375 8.015625 -4 C 8.015625 -5.515625 7.46875 -6.6875 6.46875 -7.34375 C 5.859375 -7.734375 5.046875 -7.90625 3.796875 -7.90625 L 0.3125 -7.90625 L 0.3125 -7.390625 L 0.53125 -7.390625 C 1.140625 -7.375 1.34375 -7.34375 1.4375 -7.234375 C 1.5 -7.140625 1.5 -7.125 1.5 -6.5625 L 1.5 -1.34375 C 1.5 -0.78125 1.5 -0.765625 1.4375 -0.671875 C 1.34375 -0.5625 1.140625 -0.53125 0.53125 -0.515625 L 0.3125 -0.515625 Z M 3.359375 -0.515625 C 2.796875 -0.515625 2.734375 -0.578125 2.734375 -1.125 L 2.734375 -6.78125 C 2.734375 -7.3125 2.796875 -7.390625 3.359375 -7.390625 L 3.921875 -7.390625 C 5.796875 -7.390625 6.578125 -6.375 6.578125 -3.953125 C 6.578125 -1.5 5.875 -0.515625 4.09375 -0.515625 Z M 3.359375 -0.515625 "/>
</g>
<g id="glyph-0-2">
<path d="M 6.90625 -7.90625 L 0.3125 -7.90625 L 0.3125 -7.390625 L 0.515625 -7.390625 C 1.140625 -7.375 1.34375 -7.34375 1.4375 -7.234375 C 1.5 -7.140625 1.5 -7.125 1.5 -6.5625 L 1.5 -1.34375 C 1.5 -0.78125 1.5 -0.765625 1.4375 -0.671875 C 1.34375 -0.5625 1.140625 -0.515625 0.515625 -0.515625 L 0.3125 -0.515625 L 0.3125 0 L 7.046875 0 L 7.265625 -2.921875 L 6.78125 -2.921875 C 6.359375 -0.96875 5.921875 -0.5625 4.234375 -0.515625 L 3.515625 -0.515625 C 2.859375 -0.53125 2.6875 -0.640625 2.734375 -1.046875 L 2.734375 -3.828125 L 2.953125 -3.828125 C 4.078125 -3.875 4.484375 -3.46875 4.53125 -2.25 L 5.03125 -2.25 L 5.03125 -5.84375 L 4.53125 -5.84375 C 4.453125 -4.78125 4.03125 -4.34375 2.984375 -4.34375 L 2.734375 -4.34375 L 2.734375 -6.84375 C 2.71875 -7.3125 2.828125 -7.375 3.421875 -7.390625 L 3.984375 -7.390625 C 5.78125 -7.40625 6.234375 -7.015625 6.578125 -5.109375 L 7.046875 -5.109375 Z M 6.90625 -7.90625 "/>
</g>
<g id="glyph-0-3">
<path d="M 7.125 -7.984375 L 6.703125 -7.984375 L 6.28125 -7.328125 C 5.5625 -7.890625 5.078125 -8.078125 4.28125 -8.078125 C 3.421875 -8.078125 2.734375 -7.828125 2.046875 -7.265625 C 0.96875 -6.390625 0.453125 -5.296875 0.453125 -3.8125 C 0.453125 -2.6875 0.78125 -1.765625 1.421875 -1.046875 C 2.109375 -0.28125 3.109375 0.171875 4.15625 0.171875 C 5.078125 0.171875 5.734375 -0.125 6.4375 -0.828125 L 6.84375 0.15625 L 7.3125 0.15625 L 7.3125 -2.25 C 7.3125 -2.8125 7.3125 -2.84375 7.375 -2.9375 C 7.46875 -3.0625 7.671875 -3.09375 8.296875 -3.09375 L 8.453125 -3.09375 L 8.453125 -3.609375 L 4.96875 -3.609375 L 4.96875 -3.09375 L 5.1875 -3.09375 C 6.09375 -3.09375 6.171875 -3.03125 6.171875 -2.421875 C 6.171875 -1.953125 6.09375 -1.515625 5.953125 -1.265625 C 5.6875 -0.71875 4.984375 -0.34375 4.265625 -0.34375 C 3.5625 -0.34375 2.859375 -0.71875 2.484375 -1.265625 C 2.078125 -1.875 1.90625 -2.640625 1.90625 -3.8125 C 1.90625 -6.25 2.71875 -7.5625 4.234375 -7.5625 C 5.484375 -7.5625 6.359375 -6.65625 6.796875 -4.90625 L 7.265625 -4.90625 Z M 7.125 -7.984375 "/>
</g>
<g id="glyph-0-4">
<path d="M 4.140625 -8.0625 L 3.6875 -8.0625 L 1.15625 -1.671875 C 0.859375 -0.828125 0.578125 -0.5625 -0.046875 -0.515625 L -0.09375 -0.515625 L -0.09375 0 L 2.8125 0 L 2.8125 -0.515625 L 2.59375 -0.515625 C 2 -0.515625 1.703125 -0.71875 1.703125 -1.140625 C 1.703125 -1.28125 1.734375 -1.40625 1.8125 -1.59375 L 2.171875 -2.5625 L 5.078125 -2.5625 L 5.65625 -1.09375 C 5.734375 -0.921875 5.75 -0.859375 5.75 -0.796875 C 5.75 -0.625 5.484375 -0.515625 5.078125 -0.515625 L 4.609375 -0.515625 L 4.609375 0 L 8 0 L 8 -0.515625 L 7.859375 -0.515625 C 7.28125 -0.53125 7.1875 -0.59375 6.9375 -1.21875 Z M 3.609375 -6.265625 L 4.84375 -3.15625 L 2.390625 -3.15625 Z M 3.609375 -6.265625 "/>
</g>
<g id="glyph-1-0">
<path d="M 5.296875 12.65625 L 5.3125 11.796875 L 5.234375 11.796875 C 4.265625 11.796875 3.421875 11.28125 2.90625 10.5 C 3.109375 10.578125 3.3125 10.625 3.53125 10.625 C 4.5625 10.625 5.421875 9.765625 5.421875 8.71875 C 5.421875 7.609375 4.609375 6.671875 3.53125 6.671875 C 2.34375 6.671875 1.296875 7.5625 1.296875 8.71875 C 1.296875 10.890625 3.03125 12.65625 5.171875 12.65625 Z M 9.1875 4.046875 C 8.9375 1.8125 8.359375 -1.234375 7.984375 -3.015625 C 10.125 -2.78125 11.4375 -1.015625 11.4375 0.78125 C 11.4375 2.25 10.53125 3.5625 9.1875 4.046875 Z M 1.46875 -0.5625 C 1.46875 -3.75 3.578125 -6.171875 5.71875 -8.59375 C 6.0625 -7.4375 6.359375 -6.25 6.640625 -5.09375 C 4.609375 -4.640625 3.453125 -2.921875 3.453125 -1.171875 C 3.453125 1.3125 5.65625 2.546875 5.953125 2.546875 C 6.203125 2.546875 6.390625 2.328125 6.390625 2.109375 C 6.390625 2.015625 6.359375 1.90625 6.25 1.8125 C 5.140625 1.171875 4.640625 0.234375 4.640625 -0.640625 C 4.640625 -1.796875 5.53125 -2.84375 7.109375 -3.015625 C 7.796875 0.203125 8.234375 2.96875 8.359375 4.25 C 7.671875 4.359375 6.75 4.359375 6.734375 4.359375 C 4.28125 4.359375 1.46875 2.328125 1.46875 -0.5625 Z M 4.984375 -11.015625 C 2.65625 -8.328125 0.046875 -5.75 0.046875 -2.234375 C 0.046875 1.640625 2.828125 5.21875 6.671875 5.21875 C 7.5625 5.21875 8.34375 5.078125 8.453125 5.0625 C 8.5 5.671875 8.53125 6.28125 8.53125 6.890625 C 8.53125 7.25 8.5 7.625 8.484375 7.984375 C 8.359375 9.953125 7.171875 11.75 5.3125 11.796875 L 5.296875 12.65625 C 7.5625 12.59375 9.1875 10.484375 9.328125 8.109375 C 9.34375 7.734375 9.359375 7.328125 9.359375 6.953125 C 9.359375 6.25 9.328125 5.5625 9.265625 4.859375 C 11.375 4.1875 12.84375 2.21875 12.84375 -0.046875 C 12.84375 -2.6875 10.84375 -5.234375 7.75 -5.234375 C 7.625 -5.234375 7.53125 -5.21875 7.484375 -5.21875 C 7.15625 -6.59375 6.796875 -7.984375 6.375 -9.34375 C 8.25 -11.515625 9.953125 -13.75 9.953125 -16.59375 C 9.953125 -18.84375 8.671875 -22.140625 7.3125 -23.734375 C 7.1875 -23.828125 7.03125 -23.828125 6.90625 -23.734375 C 5.046875 -22.375 3.9375 -20.203125 3.9375 -17.90625 C 3.9375 -14.40625 4.40625 -12.921875 4.984375 -11.015625 Z M 8.53125 -18.25 C 8.53125 -15.734375 7.21875 -13.71875 5.625 -11.796875 C 5.140625 -13.375 4.90625 -14.625 4.90625 -15.65625 C 4.90625 -17.84375 6.15625 -19.859375 8.125 -20.8125 C 8.546875 -19.5625 8.53125 -18.921875 8.53125 -18.25 Z M 8.53125 -18.25 "/>
</g>
<g id="glyph-1-1">
<path d="M 4.25 -2.234375 C 5.140625 -2.234375 6.90625 -1.546875 6.90625 0.484375 C 6.90625 1.546875 6.4375 2.234375 5.53125 2.234375 C 4.640625 2.234375 2.875 1.546875 2.875 -0.484375 C 2.875 -1.546875 3.34375 -2.234375 4.25 -2.234375 Z M 4.875 -2.703125 C 2.015625 -2.703125 0 -1.421875 0 0 C 0 1.421875 2.015625 2.703125 4.875 2.703125 C 7.75 2.703125 9.78125 1.421875 9.78125 0 C 9.78125 -1.421875 7.75 -2.703125 4.875 -2.703125 Z M 4.875 -2.703125 "/>
</g>
</g>
</defs>
<path fill="none" stroke-width="4.98132" stroke-linecap="round" stroke-linejoin="miter" stroke="rgb(0%, 0%, 0%)" stroke-opacity="1" stroke-miterlimit="10" d="M 285.9375 7939.570312 L 2079.257812 7939.570312 " transform="matrix(0.1, 0, 0, -0.1, -18, 833)"/>
<path fill="none" stroke-width="4.98132" stroke-linecap="round" stroke-linejoin="miter" stroke="rgb(0%, 0%, 0%)" stroke-opacity="1" stroke-miterlimit="10" d="M 285.9375 7989.375 L 2079.257812 7989.375 " transform="matrix(0.1, 0, 0, -0.1, -18, 833)"/>
<path fill="none" stroke-width="4.98132" stroke-linecap="round" stroke-linejoin="miter" stroke="rgb(0%, 0%, 0%)" stroke-opacity="1" stroke-miterlimit="10" d="M 285.9375 8039.21875 L 2079.257812 8039.21875 " transform="matrix(0.1, 0, 0, -0.1, -18, 833)"/>
<path fill="none" stroke-width="4.98132" stroke-linecap="round" stroke-linejoin="miter" stroke="rgb(0%, 0%, 0%)" stroke-opacity="1" stroke-miterlimit="10" d="M 285.9375 8089.023438 L 2079.257812 8089.023438 " transform="matrix(0.1, 0, 0, -0.1, -18, 833)"/>
<path fill="none" stroke-width="4.98132" stroke-linecap="round" stroke-linejoin="miter" stroke="rgb(0%, 0%, 0%)" stroke-opacity="1" stroke-miterlimit="10" d="M 285.9375 8138.828125 L 2079.257812 8138.828125 " transform="matrix(0.1, 0, 0, -0.1, -18, 833)"/>
<path fill="none" stroke-width="9.96264" stroke-linecap="round" stroke-linejoin="miter" stroke="rgb(0%, 0%, 0%)" stroke-opacity="1" stroke-miterlimit="10" d="M 552.929688 7889.765625 L 689.570312 7889.765625 " transform="matrix(0.1, 0, 0, -0.1, -18, 833)"/>
<g fill="rgb(0%, 0%, 0%)" fill-opacity="1">
<use xlink:href="#glyph-0-0" x="39.2383" y="57.107"/>
</g>
<g fill="rgb(0%, 0%, 0%)" fill-opacity="1">
<use xlink:href="#glyph-1-0" x="14.3317" y="34.0609"/>
</g>
<g fill="rgb(0%, 0%, 0%)" fill-opacity="1">
<use xlink:href="#glyph-1-1" x="69.4251" y="41.53277"/>
</g>
<g fill="rgb(0%, 0%, 0%)" fill-opacity="1">
<use xlink:href="#glyph-0-1" x="69.4251" y="54.45117"/>
</g>
<g fill="rgb(0%, 0%, 0%)" fill-opacity="1">
<use xlink:href="#glyph-1-1" x="99.6122" y="39.04217"/>
</g>
<g fill="rgb(0%, 0%, 0%)" fill-opacity="1">
<use xlink:href="#glyph-0-2" x="99.6122" y="51.96057"/>
</g>
<g fill="rgb(0%, 0%, 0%)" fill-opacity="1">
<use xlink:href="#glyph-1-1" x="129.7993" y="34.06097"/>
</g>
<g fill="rgb(0%, 0%, 0%)" fill-opacity="1">
<use xlink:href="#glyph-0-3" x="129.7993" y="49.65937"/>
</g>
<g fill="rgb(0%, 0%, 0%)" fill-opacity="1">
<use xlink:href="#glyph-1-1" x="159.986" y="31.56987"/>
</g>
<g fill="rgb(0%, 0%, 0%)" fill-opacity="1">
<use xlink:href="#glyph-0-4" x="159.986" y="49.64877"/>
</g>
<g fill="rgb(0%, 0%, 0%)" fill-opacity="1">
<use xlink:href="#glyph-1-1" x="39.238" y="44.02338"/>
</g>
</svg>
