<?xml version="1.0" encoding="UTF-8"?>
<svg xmlns="http://www.w3.org/2000/svg" xmlns:xlink="http://www.w3.org/1999/xlink" width="207pt" height="66pt" viewBox="0 0 207 66">
<defs>
<g>
<g id="glyph-0-0">
<path d="M 8.625 -6.5625 C 8.25 -8.640625 7.046875 -9.65625 4.96875 -9.65625 C 3.6875 -9.65625 2.65625 -9.25 1.953125 -8.46875 C 1.09375 -7.53125 0.625 -6.171875 0.625 -4.640625 C 0.625 -3.078125 1.109375 -1.734375 2 -0.8125 C 2.734375 -0.046875 3.671875 0.296875 4.90625 0.296875 C 7.234375 0.296875 8.53125 -0.953125 8.828125 -3.46875 L 7.578125 -3.46875 C 7.46875 -2.8125 7.34375 -2.375 7.140625 -2 C 6.75 -1.21875 5.9375 -0.765625 4.921875 -0.765625 C 3.03125 -0.765625 1.84375 -2.28125 1.84375 -4.65625 C 1.84375 -7.09375 2.96875 -8.59375 4.828125 -8.59375 C 5.59375 -8.59375 6.3125 -8.359375 6.703125 -7.984375 C 7.046875 -7.65625 7.25 -7.265625 7.390625 -6.5625 Z M 8.625 -6.5625 "/>
</g>
<g id="glyph-0-1">
<path d="M 2.984375 -9.5 L -0.109375 0.265625 L 0.609375 0.265625 L 3.703125 -9.5 Z M 2.984375 -9.5 "/>
</g>
<g id="glyph-0-2">
<path d="M 2.390625 -4.328125 L 6.921875 -4.328125 L 6.921875 -5.390625 L 2.390625 -5.390625 L 2.390625 -8.4375 L 7.546875 -8.4375 L 7.546875 -9.5 L 1.171875 -9.5 L 1.171875 0 L 2.390625 0 Z M 2.390625 -4.328125 "/>
</g>
<g id="glyph-0-3">
<path d="M 9.234375 -5.015625 L 5.28125 -5.015625 L 5.28125 -3.953125 L 8.171875 -3.953125 L 8.171875 -3.6875 C 8.171875 -2 6.921875 -0.765625 5.1875 -0.765625 C 4.21875 -0.765625 3.34375 -1.125 2.78125 -1.734375 C 2.15625 -2.40625 1.78125 -3.546875 1.78125 -4.71875 C 1.78125 -7.046875 3.109375 -8.59375 5.125 -8.59375 C 6.5625 -8.59375 7.609375 -7.84375 7.875 -6.625 L 9.109375 -6.625 C 8.765625 -8.546875 7.3125 -9.65625 5.140625 -9.65625 C 3.96875 -9.65625 3.03125 -9.359375 2.296875 -8.75 C 1.1875 -7.828125 0.578125 -6.359375 0.578125 -4.65625 C 0.578125 -1.734375 2.359375 0.296875 4.921875 0.296875 C 6.21875 0.296875 7.234375 -0.1875 8.171875 -1.21875 L 8.46875 0.046875 L 9.234375 0.046875 Z M 9.234375 -5.015625 "/>
</g>
<g id="glyph-1-0">
<path d="M 4.03125 -3.484375 C 4.03125 -4.4375 3.40625 -4.96875 2.28125 -4.96875 C 1.15625 -4.96875 0.4375 -4.390625 0.4375 -3.5 C 0.4375 -2.734375 0.828125 -2.375 1.96875 -2.109375 L 2.6875 -1.921875 C 3.21875 -1.796875 3.421875 -1.609375 3.421875 -1.265625 C 3.421875 -0.796875 2.984375 -0.5 2.296875 -0.5 C 1.890625 -0.5 1.546875 -0.625 1.34375 -0.828125 C 1.21875 -0.953125 1.171875 -1.09375 1.125 -1.4375 L 0.3125 -1.4375 C 0.34375 -0.328125 0.984375 0.21875 2.234375 0.21875 C 3.453125 0.21875 4.234375 -0.390625 4.234375 -1.3125 C 4.234375 -2.03125 3.828125 -2.4375 2.859375 -2.671875 L 2.125 -2.84375 C 1.5 -2.984375 1.234375 -3.1875 1.234375 -3.53125 C 1.234375 -3.984375 1.625 -4.265625 2.265625 -4.265625 C 2.875 -4.265625 3.203125 -3.984375 3.21875 -3.484375 Z M 4.03125 -3.484375 "/>
</g>
<g id="glyph-1-1">
<path d="M 4.4375 0 L 4.4375 -4.828125 L 3.671875 -4.828125 L 3.671875 -2.09375 C 3.671875 -1.109375 3.15625 -0.453125 2.359375 -0.453125 C 1.75 -0.453125 1.359375 -0.828125 1.359375 -1.40625 L 1.359375 -4.828125 L 0.59375 -4.828125 L 0.59375 -1.109375 C 0.59375 -0.296875 1.203125 0.21875 2.140625 0.21875 C 2.84375 0.21875 3.296875 -0.03125 3.75 -0.671875 L 3.75 0 Z M 4.4375 0 "/>
</g>
<g id="glyph-1-2">
<path d="M 3.015625 -1.609375 L 3.015625 0 L 3.828125 0 L 3.828125 -1.609375 L 4.796875 -1.609375 L 4.796875 -2.34375 L 3.828125 -2.34375 L 3.828125 -6.671875 L 3.21875 -6.671875 L 0.265625 -2.46875 L 0.265625 -1.609375 Z M 3.015625 -2.34375 L 0.96875 -2.34375 L 3.015625 -5.28125 Z M 3.015625 -2.34375 "/>
</g>
<g id="glyph-2-0">
<path d="M 4.25 -2.234375 C 5.140625 -2.234375 6.90625 -1.546875 6.90625 0.484375 C 6.90625 1.546875 6.4375 2.234375 5.53125 2.234375 C 4.640625 2.234375 2.875 1.546875 2.875 -0.484375 C 2.875 -1.546875 3.34375 -2.234375 4.25 -2.234375 Z M 4.875 -2.703125 C 2.015625 -2.703125 0 -1.421875 0 0 C 0 1.421875 2.015625 2.703125 4.875 2.703125 C 7.75 2.703125 9.78125 1.421875 9.78125 0 C 9.78125 -1.421875 7.75 -2.703125 4.875 -2.703125 Z M 4.875 -2.703125 "/>
</g>
<g id="glyph-2-1">
<path d="M 5.296875 12.65625 L 5.3125 11.796875 L 5.234375 11.796875 C 4.265625 11.796875 3.421875 11.28125 2.90625 10.5 C 3.109375 10.578125 3.3125 10.625 3.53125 10.625 C 4.5625 10.625 5.421875 9.765625 5.421875 8.71875 C 5.421875 7.609375 4.609375 6.671875 3.53125 6.671875 C 2.34375 6.671875 1.296875 7.5625 1.296875 8.71875 C 1.296875 10.890625 3.03125 12.65625 5.171875 12.65625 Z M 9.1875 4.046875 C 8.9375 1.8125 8.359375 -1.234375 7.984375 -3.015625 C 10.125 -2.78125 11.4375 -1.015625 11.4375 0.78125 C 11.4375 2.25 10.53125 3.5625 9.1875 4.046875 Z M 1.46875 -0.5625 C 1.46875 -3.75 3.578125 -6.171875 5.71875 -8.59375 C 6.0625 -7.4375 6.359375 -6.25 6.640625 -5.09375 C 4.609375 -4.640625 3.453125 -2.921875 3.453125 -1.171875 C 3.453125 1.3125 5.65625 2.546875 5.953125 2.546875 C 6.203125 2.546875 6.390625 2.328125 6.390625 2.109375 C 6.390625 2.015625 6.359375 1.90625 6.25 1.8125 C 5.140625 1.171875 4.640625 0.234375 4.640625 -0.640625 C 4.640625 -1.796875 5.53125 -2.84375 7.109375 -3.015625 C 7.796875 0.203125 8.234375 2.96875 8.359375 4.25 C 7.671875 4.359375 6.75 4.359375 6.734375 4.359375 C 4.28125 4.359375 1.46875 2.328125 1.46875 -0.5625 Z M 4.984375 -11.015625 C 2.65625 -8.328125 0.046875 -5.75 0.046875 -2.234375 C 0.046875 1.640625 2.828125 5.21875 6.671875 5.21875 C 7.5625 5.21875 8.34375 5.078125 8.453125 5.0625 C 8.5 5.671875 8.53125 6.28125 8.53125 6.890625 C 8.53125 7.25 8.5 7.625 8.484375 7.984375 C 8.359375 9.953125 7.171875 11.75 5.3125 11.796875 L 5.296875 12.65625 C 7.5625 12.59375 9.1875 10.484375 9.328125 8.109375 C 9.34375 7.734375 9.359375 7.328125 9.359375 6.953125 C 9.359375 6.25 9.328125 5.5625 9.265625 4.859375 C 11.375 4.1875 12.84375 2.21875 12.84375 -0.046875 C 12.84375 -2.6875 10.84375 -5.234375 7.75 -5.234375 C 7.625 -5.234375 7.53125 -5.21875 7.484375 -5.21875 C 7.15625 -6.59375 6.796875 -7.984375 6.375 -9.34375 C 8.25 -11.515625 9.953125 -13.75 9.953125 -16.59375 C 9.953125 -18.84375 8.671875 -22.140625 7.3125 -23.734375 C 7.1875 -23.828125 7.03125 -23.828125 6.90625 -23.734375 C 5.046875 -22.375 3.9375 -20.203125 3.9375 -17.90625 C 3.9375 -14.40625 4.40625 -12.921875 4.984375 -11.015625 Z M 8.53125 -18.25 C 8.53125 -15.734375 7.21875 -13.71875 5.625 -11.796875 C 5.140625 -13.375 4.90625 -14.625 4.90625 -15.65625 C 4.90625 -17.84375 6.15625 -19.859375 8.125 -20.8125 C 8.546875 -19.5625 8.53125 -18.921875 8.53125 -18.25 Z M 8.53125 -18.25 "/>
</g>
</g>
</defs>
<path fill="none" stroke-width="9.46451" stroke-linecap="butt" stroke-linejoin="miter" stroke="rgb(0%, 0%, 0%)" stroke-opacity="1" stroke-miterlimit="10" d="M 1453.125 7847.304688 L 1453.125 8046.523438 " transform="matrix(0.1, 0, 0, -0.1, -60, 833)"/>
<path fill="none" stroke-width="9.96264" stroke-linecap="round" stroke-linejoin="miter" stroke="rgb(0%, 0%, 0%)" stroke-opacity="1" stroke-miterlimit="10" d="M 978.125 7797.460938 L 1114.765625 7797.460938 " transform="matrix(0.1, 0, 0, -0.1, -60, 833)"/>
<path fill="none" stroke-width="4.98132" stroke-linecap="round" stroke-linejoin="miter" stroke="rgb(0%, 0%, 0%)" stroke-opacity="1" stroke-miterlimit="10" d="M 711.132812 7847.304688 L 2565.234375 7847.304688 " transform="matrix(0.1, 0, 0, -0.1, -60, 833)"/>
<path fill="none" stroke-width="4.98132" stroke-linecap="round" stroke-linejoin="miter" stroke="rgb(0%, 0%, 0%)" stroke-opacity="1" stroke-miterlimit="10" d="M 711.132812 7897.109375 L 2565.234375 7897.109375 " transform="matrix(0.1, 0, 0, -0.1, -60, 833)"/>
<path fill="none" stroke-width="4.98132" stroke-linecap="round" stroke-linejoin="miter" stroke="rgb(0%, 0%, 0%)" stroke-opacity="1" stroke-miterlimit="10" d="M 711.132812 7946.914062 L 2565.234375 7946.914062 " transform="matrix(0.1, 0, 0, -0.1, -60, 833)"/>
<path fill="none" stroke-width="4.98132" stroke-linecap="round" stroke-linejoin="miter" stroke="rgb(0%, 0%, 0%)" stroke-opacity="1" stroke-miterlimit="10" d="M 711.132812 7996.71875 L 2565.234375 7996.71875 " transform="matrix(0.1, 0, 0, -0.1, -60, 833)"/>
<path fill="none" stroke-width="4.98132" stroke-linecap="round" stroke-linejoin="miter" stroke="rgb(0%, 0%, 0%)" stroke-opacity="1" stroke-miterlimit="10" d="M 711.132812 8046.523438 L 2565.234375 8046.523438 " transform="matrix(0.1, 0, 0, -0.1, -60, 833)"/>
<path fill="none" stroke-width="9.46451" stroke-linecap="butt" stroke-linejoin="miter" stroke="rgb(0%, 0%, 0%)" stroke-opacity="1" stroke-miterlimit="10" d="M 2563.007812 7847.304688 L 2563.007812 8046.523438 " transform="matrix(0.1, 0, 0, -0.1, -60, 833)"/>
<path fill="none" stroke-width="9.46451" stroke-linecap="butt" stroke-linejoin="miter" stroke="rgb(0%, 0%, 0%)" stroke-opacity="1" stroke-miterlimit="10" d="M 2008.085938 7847.304688 L 2008.085938 8046.523438 " transform="matrix(0.1, 0, 0, -0.1, -60, 833)"/>
<g fill="rgb(0%, 0%, 0%)" fill-opacity="1">
<use xlink:href="#glyph-0-0" x="39.7578" y="22.841"/>
</g>
<g fill="rgb(0%, 0%, 0%)" fill-opacity="1">
<use xlink:href="#glyph-1-0" x="49.11249" y="16.91717"/>
</g>
<g fill="rgb(0%, 0%, 0%)" fill-opacity="1">
<use xlink:href="#glyph-1-1" x="53.704679" y="16.91717"/>
</g>
<g fill="rgb(0%, 0%, 0%)" fill-opacity="1">
<use xlink:href="#glyph-1-0" x="58.807023" y="16.91717"/>
</g>
<g fill="rgb(0%, 0%, 0%)" fill-opacity="1">
<use xlink:href="#glyph-1-2" x="63.398822" y="16.91717"/>
</g>
<g fill="rgb(0%, 0%, 0%)" fill-opacity="1">
<use xlink:href="#glyph-2-0" x="39.7578" y="53.25267"/>
</g>
<g fill="rgb(0%, 0%, 0%)" fill-opacity="1">
<use xlink:href="#glyph-2-0" x="39.7578" y="45.7808"/>
</g>
<g fill="rgb(0%, 0%, 0%)" fill-opacity="1">
<use xlink:href="#glyph-2-0" x="48.23593" y="43.29017"/>
</g>
<g fill="rgb(0%, 0%, 0%)" fill-opacity="1">
<use xlink:href="#glyph-2-1" x="14.85109" y="43.29017"/>
</g>
<g fill="rgb(0%, 0%, 0%)" fill-opacity="1">
<use xlink:href="#glyph-0-0" x="95.25073" y="22.84097"/>
</g>
<g fill="rgb(0%, 0%, 0%)" fill-opacity="1">
<use xlink:href="#glyph-1-0" x="104.60503" y="16.91714"/>
</g>
<g fill="rgb(0%, 0%, 0%)" fill-opacity="1">
<use xlink:href="#glyph-1-1" x="109.197609" y="16.91714"/>
</g>
<g fill="rgb(0%, 0%, 0%)" fill-opacity="1">
<use xlink:href="#glyph-1-0" x="114.299954" y="16.91714"/>
</g>
<g fill="rgb(0%, 0%, 0%)" fill-opacity="1">
<use xlink:href="#glyph-1-2" x="118.892143" y="16.91714"/>
</g>
<g fill="rgb(0%, 0%, 0%)" fill-opacity="1">
<use xlink:href="#glyph-0-1" x="123.99453" y="22.84097"/>
</g>
<g fill="rgb(0%, 0%, 0%)" fill-opacity="1">
<use xlink:href="#glyph-0-2" x="127.566009" y="22.84097"/>
</g>
<g fill="rgb(0%, 0%, 0%)" fill-opacity="1">
<use xlink:href="#glyph-2-0" x="95.25083" y="45.78077"/>
</g>
<g fill="rgb(0%, 0%, 0%)" fill-opacity="1">
<use xlink:href="#glyph-2-0" x="103.72974" y="43.29014"/>
</g>
<g fill="rgb(0%, 0%, 0%)" fill-opacity="1">
<use xlink:href="#glyph-2-0" x="95.25083" y="35.81827"/>
</g>
<g fill="rgb(0%, 0%, 0%)" fill-opacity="1">
<use xlink:href="#glyph-0-0" x="150.74423" y="22.84097"/>
</g>
<g fill="rgb(0%, 0%, 0%)" fill-opacity="1">
<use xlink:href="#glyph-1-0" x="160.09892" y="16.91714"/>
</g>
<g fill="rgb(0%, 0%, 0%)" fill-opacity="1">
<use xlink:href="#glyph-1-1" x="164.691109" y="16.91714"/>
</g>
<g fill="rgb(0%, 0%, 0%)" fill-opacity="1">
<use xlink:href="#glyph-1-0" x="169.793441" y="16.91714"/>
</g>
<g fill="rgb(0%, 0%, 0%)" fill-opacity="1">
<use xlink:href="#glyph-1-2" x="174.385239" y="16.91714"/>
</g>
<g fill="rgb(0%, 0%, 0%)" fill-opacity="1">
<use xlink:href="#glyph-0-1" x="179.48762" y="22.84097"/>
</g>
<g fill="rgb(0%, 0%, 0%)" fill-opacity="1">
<use xlink:href="#glyph-0-3" x="183.059099" y="22.84097"/>
</g>
<g fill="rgb(0%, 0%, 0%)" fill-opacity="1">
<use xlink:href="#glyph-2-0" x="150.74422" y="43.29017"/>
</g>
<g fill="rgb(0%, 0%, 0%)" fill-opacity="1">
<use xlink:href="#glyph-2-0" x="150.74422" y="35.8183"/>
</g>
<g fill="rgb(0%, 0%, 0%)" fill-opacity="1">
<use xlink:href="#glyph-2-0" x="150.74422" y="28.34643"/>
</g>
</svg>
